<svg id="1b13ca32-cf49-483d-8f0b-56a2cfc1c2bd" data-name="3c5e9c12-ae37-4fed-880a-b99dc3b5f77b" xmlns="http://www.w3.org/2000/svg" width="70" height="2531.75" viewBox="0 0 70 2531.75"><title>sprite-temps-70</title><rect y="1406.52" width="70" height="56" style="fill:#fff;fill-opacity:0"/><rect y="1125.7" width="70" height="56" style="fill:#fff;fill-opacity:0"/><rect y="1689.83" width="70" height="56" style="fill:#fff;fill-opacity:0"/><rect y="1858.94" width="70" height="56" style="fill:#fff;fill-opacity:0"/><rect y="1737.87" width="70" height="56" style="fill:#fff;fill-opacity:0"/><rect y="2075.34" width="70" height="56" style="fill:#fff;fill-opacity:0"/><rect y="1520.95" width="70" height="56" style="fill:#fff;fill-opacity:0"/><rect y="1350.85" width="70" height="56" style="fill:#fff;fill-opacity:0"/><rect y="1294.37" width="70" height="56" style="fill:#fff;fill-opacity:0"/><rect width="70" height="56" style="fill:#fff;fill-opacity:0"/><rect y="57.9" width="70" height="56" style="fill:#fff;fill-opacity:0"/><rect y="112.07" width="70" height="56" style="fill:#fff;fill-opacity:0"/><circle cx="35" cy="28" r="20" style="fill:#efeb60;opacity:0.5099999904632568;isolation:isolate"/><circle cx="35" cy="28" r="15.26" style="fill:#f6b31a;stroke:#feea02;stroke-miterlimit:10"/><circle cx="36" cy="85.9" r="20" style="fill:#43444d;opacity:0.18000000715255737;isolation:isolate"/><path d="M35.63,72a13.45,13.45,0,0,1,4.7-.25,13.47,13.47,0,0,0,5.79,24.64A13.48,13.48,0,1,1,35.63,72Z" style="fill:#626472;opacity:0.18000000715255737;isolation:isolate"/><path d="M31.4,73a13.45,13.45,0,0,1,4.7-.25,13.47,13.47,0,0,0,5.79,24.64A13.48,13.48,0,1,1,31.4,73Z" style="fill:#fdfce9"/><path d="M45,88.52a.78.78,0,0,0,.78-.78V85.08a.77.77,0,1,0-1.55,0h0v2.65a.78.78,0,0,0,.77.79Z" style="fill:#fff"/><path d="M47.12,86.41a.78.78,0,0,0-.78-.78H43.68a.78.78,0,1,0-.18,1.55h2.83a.78.78,0,0,0,.79-.77Z" style="fill:#fff"/><path d="M19.9,75.45a.78.78,0,0,0,.78-.78V72a.77.77,0,1,0-1.55,0v2.65a.78.78,0,0,0,.76.8h0Z" style="fill:#fff"/><path d="M22,73.34a.78.78,0,0,0-.78-.78H18.57a.78.78,0,0,0,0,1.55h2.65A.78.78,0,0,0,22,73.34Z" style="fill:#fff"/><path d="M41.89,73.34a.78.78,0,0,0,.78-.78V69.91a.77.77,0,1,0-1.55,0v2.65A.78.78,0,0,0,41.89,73.34Z" style="fill:#fff"/><path d="M44,71.23a.78.78,0,0,0-.78-.78H40.56a.78.78,0,0,0,0,1.55h2.65a.78.78,0,0,0,.79-.77Z" style="fill:#fff"/><rect y="510.07" width="70" height="56" style="fill:#fff;fill-opacity:0"/><rect y="454.03" width="70" height="56" style="fill:#fff;fill-opacity:0"/><rect y="281.24" width="70" height="56" style="fill:#fff;fill-opacity:0"/><rect y="339.71" width="70" height="56" style="fill:#fff;fill-opacity:0"/><rect y="396.59" width="70" height="56" style="fill:#fff;fill-opacity:0"/><rect y="168.97" width="70" height="56" style="fill:#fff;fill-opacity:0"/><rect y="226.14" width="70" height="56" style="fill:#fff;fill-opacity:0"/><circle cx="36" cy="196.97" r="20" style="fill:#43444d;opacity:0.18000000715255737;isolation:isolate"/><path d="M45,199.59a.78.78,0,0,0,.78-.78v-2.65a.77.77,0,0,0-1.55,0h0v2.65A.78.78,0,0,0,45,199.59Z" style="fill:#fff"/><path d="M47.12,197.48a.78.78,0,0,0-.78-.78H43.68a.78.78,0,0,0,0,1.55h2.65a.78.78,0,0,0,.79-.77Z" style="fill:#fff"/><path d="M19.9,186.52a.78.78,0,0,0,.78-.78v-2.65a.77.77,0,0,0-1.55,0h0v2.65A.78.78,0,0,0,19.9,186.52Z" style="fill:#fff"/><path d="M22,184.41a.78.78,0,0,0-.78-.78H18.57a.78.78,0,1,0-.18,1.55h2.83A.78.78,0,0,0,22,184.41Z" style="fill:#fff"/><path d="M41.89,184.41a.78.78,0,0,0,.78-.78V181a.77.77,0,0,0-1.55,0v2.65A.78.78,0,0,0,41.89,184.41Z" style="fill:#fff"/><path d="M44,182.3a.78.78,0,0,0-.78-.78H40.56a.78.78,0,1,0-.18,1.55h2.83a.78.78,0,0,0,.79-.77Z" style="fill:#fff"/><path d="M36.63,184a13.45,13.45,0,0,1,4.7-.25,13.47,13.47,0,0,0,5.79,24.64A13.48,13.48,0,1,1,36.63,184Z" style="fill:#626472;opacity:0.18000000715255737;isolation:isolate"/><path d="M32.41,184.1a13.45,13.45,0,0,1,4.7-.25,13.47,13.47,0,0,0,5.79,24.64A13.48,13.48,0,1,1,32.41,184.1Z" style="fill:#fdfce9"/><g style="opacity:0.8999999761581421"><path d="M13.08,191.36H42.77A2.28,2.28,0,0,1,45,193.64h0a2.28,2.28,0,0,1-2.28,2.28H13.08a2.28,2.28,0,0,1-2.28-2.28h0A2.28,2.28,0,0,1,13.08,191.36Z" style="fill:#f4f4f4"/><path d="M27.23,200.41H56.92a2.28,2.28,0,0,1,2.28,2.28h0A2.28,2.28,0,0,1,57,205H27.23A2.28,2.28,0,0,1,25,202.69h0A2.28,2.28,0,0,1,27.23,200.41Z" style="fill:#f4f4f4"/></g><circle cx="35" cy="140.67" r="20" style="fill:#efeb60;opacity:0.5099999904632568;isolation:isolate"/><circle cx="35" cy="140.67" r="15.26" style="fill:#f6b31a;stroke:#feea02;stroke-miterlimit:10"/><g style="opacity:0.8999999761581421"><path d="M13.08,134.26H42.77A2.28,2.28,0,0,1,45,136.54h0a2.28,2.28,0,0,1-2.28,2.28H13.08a2.28,2.28,0,0,1-2.28-2.28h0A2.28,2.28,0,0,1,13.08,134.26Z" style="fill:#f4f4f4"/><path d="M27.23,143.31H56.92a2.28,2.28,0,0,1,2.28,2.28h0a2.28,2.28,0,0,1-2.28,2.28H27.23A2.28,2.28,0,0,1,25,145.59h0A2.28,2.28,0,0,1,27.23,143.31Z" style="fill:#f4f4f4"/></g><circle cx="34.9" cy="253.46" r="17.5" style="fill:#efeb60;opacity:0.5099999904632568;isolation:isolate"/><circle cx="34.9" cy="253.46" r="13.35" style="fill:#f6b31a;stroke:#feea02;stroke-miterlimit:10"/><path d="M54.7,256.36a11.31,11.31,0,0,0-20.8,4.24,6.52,6.52,0,0,0,.16,13H53.7a8.67,8.67,0,0,0,.94-17.28Z" style="fill:#fff;opacity:0.800000011920929;isolation:isolate"/><path d="M11.72,246.69a6.13,6.13,0,0,1,5.16-2.74,6,6,0,0,1,6,4.92,3.35,3.35,0,1,1-.08,6.7H12.23a4.44,4.44,0,1,1-.51-8.87Z" style="fill:#fff;opacity:0.800000011920929;isolation:isolate"/><circle cx="36" cy="308.85" r="20" style="fill:#43444d;opacity:0.18000000715255737;isolation:isolate"/><path d="M45,311.46a.78.78,0,0,0,.78-.78V308a.77.77,0,0,0-1.55,0h0v2.65a.78.78,0,0,0,.75.81h0Z" style="fill:#fff"/><path d="M47.12,309.35a.78.78,0,0,0-.78-.78H43.68a.77.77,0,0,0,0,1.55h2.65a.78.78,0,0,0,.79-.77Z" style="fill:#fff"/><path d="M19.9,298.39a.78.78,0,0,0,.78-.78V295a.77.77,0,0,0-1.55,0h0v2.65A.78.78,0,0,0,19.9,298.39Z" style="fill:#fff"/><path d="M22,296.28a.78.78,0,0,0-.78-.78H18.57a.77.77,0,0,0,0,1.55h2.65A.78.78,0,0,0,22,296.28Z" style="fill:#fff"/><path d="M41.89,296.28a.78.78,0,0,0,.78-.78v-2.65a.77.77,0,0,0-1.55,0v2.65A.78.78,0,0,0,41.89,296.28Z" style="fill:#fff"/><path d="M44,294.18a.78.78,0,0,0-.78-.78H40.56a.77.77,0,0,0,0,1.55h2.65a.78.78,0,0,0,.79-.77Z" style="fill:#fff"/><path d="M35,296.21a13.45,13.45,0,0,1,4.7-.25,13.47,13.47,0,0,0,5.79,24.64A13.48,13.48,0,1,1,35,296.21Z" style="fill:#626472;opacity:0.18000000715255737;isolation:isolate"/><path d="M32.41,296a13.45,13.45,0,0,1,4.7-.25,13.47,13.47,0,0,0,5.79,24.64A13.48,13.48,0,1,1,32.41,296Z" style="fill:#fdfce9"/><path d="M54.7,312.33a11.31,11.31,0,0,0-20.79,4.23,6.52,6.52,0,0,0,.16,13H53.71a8.67,8.67,0,0,0,.94-17.28Z" style="fill:#fff;opacity:0.800000011920929;isolation:isolate"/><path d="M11.72,302.65a6.13,6.13,0,0,1,5.16-2.74,6,6,0,0,1,6,4.92,3.35,3.35,0,1,1-.08,6.7H12.23a4.44,4.44,0,1,1-.51-8.87Z" style="fill:#fff;opacity:0.800000011920929;isolation:isolate"/><g style="opacity:0.30000001192092896"><path d="M55.54,365.27A11.31,11.31,0,0,0,34.85,369a6.6,6.6,0,0,1,5.08,3.22l-.87.49c-1.49-2.62-4.45-2.94-6.48-2.81a6.52,6.52,0,0,0,2.33,12.61H54.55a8.67,8.67,0,0,0,.94-17.28Z" style="fill:#231f20"/><path d="M28.18,360.69A7.14,7.14,0,0,0,21,354.83a7.32,7.32,0,0,0-5.74,2.73c1.49.25,3.47.93,4.31,2.78l-.91.41c-1-2.3-4.59-2.34-5.13-2.34a5.3,5.3,0,0,0-3.6,4.94,5.42,5.42,0,0,0,5.54,5.3H28a4,4,0,0,0,.1-8Z" style="fill:#231f20"/></g><path d="M53.54,363.27A11.31,11.31,0,0,0,32.85,367a6.6,6.6,0,0,1,5.08,3.22l-.87.49c-1.49-2.62-4.45-2.94-6.48-2.81a6.52,6.52,0,0,0,2.33,12.61H52.55a8.67,8.67,0,0,0,.94-17.28Z" style="fill:#d8d9d8"/><path d="M26.18,358.69A7.14,7.14,0,0,0,19,352.83a7.32,7.32,0,0,0-5.74,2.73c1.49.25,3.47.93,4.31,2.78l-.91.41c-1-2.3-4.59-2.34-5.13-2.34a5.3,5.3,0,0,0-3.53,5,5.42,5.42,0,0,0,5.54,5.3H26.11a4,4,0,0,0,.1-8Z" style="fill:#d8d9d8"/><circle cx="35" cy="424.5" r="20" style="fill:#efeb60;opacity:0.5099999904632568;isolation:isolate"/><circle cx="35" cy="424.5" r="15.26" style="fill:#f6b31a;stroke:#feea02;stroke-miterlimit:10"/><path d="M15.75,428.12H45.44a2.28,2.28,0,0,1,2.28,2.28h0a2.28,2.28,0,0,1-2.28,2.28H15.75a2.28,2.28,0,0,1-2.28-2.28h0A2.28,2.28,0,0,1,15.75,428.12Z" style="fill:#bcbcbc"/><path d="M18.41,440.13H48.1a2.28,2.28,0,0,1,2.28,2.28h0a2.28,2.28,0,0,1-2.28,2.28H18.41a2.28,2.28,0,0,1-2.28-2.28h0A2.28,2.28,0,0,1,18.41,440.13Z" style="fill:#bcbcbc"/><path d="M26.56,434.17H56.25a2.28,2.28,0,0,1,2.28,2.28h0a2.28,2.28,0,0,1-2.28,2.28H26.56a2.28,2.28,0,0,1-2.28-2.28h0A2.28,2.28,0,0,1,26.56,434.17Z" style="fill:#bcbcbc"/><path d="M13.75,426.12H43.44a2.28,2.28,0,0,1,2.28,2.28h0a2.28,2.28,0,0,1-2.28,2.28H13.75a2.28,2.28,0,0,1-2.28-2.28h0A2.28,2.28,0,0,1,13.75,426.12Z" style="fill:#f4f4f4"/><path d="M16.41,438.12H46.1a2.28,2.28,0,0,1,2.28,2.28h0a2.28,2.28,0,0,1-2.28,2.28H16.41a2.28,2.28,0,0,1-2.28-2.28h0A2.28,2.28,0,0,1,16.41,438.12Z" style="fill:#f4f4f4"/><path d="M24.56,432.16H54.25a2.28,2.28,0,0,1,2.28,2.28h0a2.28,2.28,0,0,1-2.28,2.28H24.56a2.28,2.28,0,0,1-2.28-2.28h0A2.28,2.28,0,0,1,24.56,432.16Z" style="fill:#f4f4f4"/><rect y="457.9" width="64.23" height="51.38" style="fill:#fff;fill-opacity:0"/><circle cx="33.03" cy="482.44" r="18.35" style="fill:#43444d;opacity:0.18000000715255737;isolation:isolate"/><path d="M41.3,484.84a.72.72,0,0,0,.71-.72v-2.43a.71.71,0,0,0-1.42,0h0v2.43a.71.71,0,0,0,.7.72h0Z" style="fill:#fff"/><path d="M43.23,482.9a.71.71,0,0,0-.71-.71H40.08a.71.71,0,0,0,0,1.42h2.43a.71.71,0,0,0,.72-.7h0Z" style="fill:#fff"/><path d="M18.26,472.84a.72.72,0,0,0,.71-.72v-2.43a.71.71,0,0,0-1.42,0v2.43a.71.71,0,0,0,.7.72h0Z" style="fill:#fff"/><path d="M20.19,470.91a.71.71,0,0,0-.71-.71H17a.71.71,0,1,0,0,1.42h2.43a.71.71,0,0,0,.76-.66h0Z" style="fill:#fff"/><path d="M32.21,470.16a12.46,12.46,0,0,1,4.35-.23,12.48,12.48,0,0,0,5.37,22.82,12.49,12.49,0,1,1-9.72-22.6Z" style="fill:#626472;opacity:0.18000000715255737;isolation:isolate"/><path d="M38.43,470.91a.72.72,0,0,0,.71-.72v-2.43a.71.71,0,0,0-1.42,0h0v2.43a.71.71,0,0,0,.7.72h0Z" style="fill:#fff"/><path d="M40.37,469a.71.71,0,0,0-.71-.71H37.22a.71.71,0,0,0,0,1.42h2.43a.71.71,0,0,0,.72-.7h0Z" style="fill:#fff"/><path d="M29.74,470.62A12.34,12.34,0,0,1,34,470.4,12.36,12.36,0,0,0,39.36,493a12.37,12.37,0,1,1-9.63-22.38Z" style="fill:#fdfce9"/><rect x="12.36" y="488.38" width="31.42" height="4.19" rx="2.09" ry="2.09" style="fill:#bcbcbc"/><rect x="14.8" y="499.4" width="31.42" height="4.19" rx="2.09" ry="2.09" style="fill:#bcbcbc"/><rect x="22.28" y="493.93" width="31.42" height="4.19" rx="2.09" ry="2.09" style="fill:#bcbcbc"/><rect x="10.52" y="486.55" width="31.42" height="4.19" rx="2.09" ry="2.09" style="fill:#f4f4f4"/><rect x="12.97" y="497.56" width="31.42" height="4.19" rx="2.09" ry="2.09" style="fill:#f4f4f4"/><rect x="20.45" y="492.09" width="31.42" height="4.19" rx="2.09" ry="2.09" style="fill:#f4f4f4"/><path d="M15.75,530.78H45.44a2.28,2.28,0,0,1,2.28,2.28h0a2.28,2.28,0,0,1-2.28,2.28H15.75a2.28,2.28,0,0,1-2.28-2.28h0a2.28,2.28,0,0,1,2.28-2.28Z" style="fill:#bcbcbc"/><path d="M18.41,542.79H48.1a2.28,2.28,0,0,1,2.28,2.28h0a2.28,2.28,0,0,1-2.28,2.28H18.41a2.28,2.28,0,0,1-2.28-2.28h0a2.28,2.28,0,0,1,2.28-2.28Z" style="fill:#bcbcbc"/><path d="M26.56,536.83H56.25a2.28,2.28,0,0,1,2.28,2.28h0a2.28,2.28,0,0,1-2.28,2.28H26.56a2.28,2.28,0,0,1-2.28-2.28h0a2.28,2.28,0,0,1,2.28-2.28Z" style="fill:#bcbcbc"/><path d="M13.75,528.78H43.44a2.28,2.28,0,0,1,2.28,2.28h0a2.28,2.28,0,0,1-2.28,2.28H13.75a2.28,2.28,0,0,1-2.28-2.28h0a2.28,2.28,0,0,1,2.28-2.28Z" style="fill:#f4f4f4"/><path d="M16.41,540.79H46.1a2.28,2.28,0,0,1,2.28,2.28h0a2.28,2.28,0,0,1-2.28,2.28H16.41a2.28,2.28,0,0,1-2.28-2.28h0a2.28,2.28,0,0,1,2.28-2.28Z" style="fill:#f4f4f4"/><path d="M24.56,534.83H54.25a2.28,2.28,0,0,1,2.28,2.28h0a2.28,2.28,0,0,1-2.28,2.28H24.56a2.28,2.28,0,0,1-2.28-2.28h0a2.28,2.28,0,0,1,2.28-2.28Z" style="fill:#f4f4f4"/><rect y="563.71" width="70" height="56" style="fill:#fff;fill-opacity:0"/><rect x="13.47" y="576.96" width="34.25" height="4.01" rx="2" ry="2" style="fill:#bcbcbc"/><rect x="16.13" y="587.51" width="34.25" height="4.01" rx="2" ry="2" style="fill:#bcbcbc"/><rect x="24.28" y="582.27" width="34.25" height="4.01" rx="2" ry="2" style="fill:#bcbcbc"/><rect x="11.47" y="575.2" width="34.25" height="4.01" rx="2" ry="2" style="fill:#f4f4f4"/><rect x="14.13" y="585.75" width="34.25" height="4.01" rx="2" ry="2" style="fill:#f4f4f4"/><rect x="22.28" y="580.51" width="34.25" height="4.01" rx="2" ry="2" style="fill:#f4f4f4"/><rect x="13.47" y="593.66" width="34.25" height="4.01" rx="2" ry="2" style="fill:#bcbcbc"/><rect x="16.13" y="604.21" width="34.25" height="4.01" rx="2" ry="2" style="fill:#bcbcbc"/><rect x="24.28" y="598.98" width="34.25" height="4.01" rx="2" ry="2" style="fill:#bcbcbc"/><rect x="11.47" y="591.9" width="34.25" height="4.01" rx="2" ry="2" style="fill:#f4f4f4"/><rect x="14.13" y="602.45" width="34.25" height="4.01" rx="2" ry="2" style="fill:#f4f4f4"/><rect x="22.28" y="597.22" width="34.25" height="4.01" rx="2" ry="2" style="fill:#f4f4f4"/><rect y="620.39" width="70" height="56" style="fill:#fff;fill-opacity:0"/><rect y="676.15" width="70" height="56" style="fill:#fff;fill-opacity:0"/><rect x="13.47" y="633.35" width="34.25" height="4.01" rx="2" ry="2" style="fill:#bcbcbc"/><rect x="16.13" y="643.9" width="34.25" height="4.01" rx="2" ry="2" style="fill:#bcbcbc"/><rect x="24.28" y="638.67" width="34.25" height="4.01" rx="2" ry="2" style="fill:#bcbcbc"/><rect x="11.47" y="631.6" width="34.25" height="4.01" rx="2" ry="2" style="fill:#f4f4f4"/><rect x="14.13" y="642.15" width="34.25" height="4.01" rx="2" ry="2" style="fill:#f4f4f4"/><rect x="22.28" y="636.91" width="34.25" height="4.01" rx="2" ry="2" style="fill:#f4f4f4"/><rect x="13.47" y="650.06" width="34.25" height="4.01" rx="2" ry="2" style="fill:#bcbcbc"/><rect x="16.13" y="660.61" width="34.25" height="4.01" rx="2" ry="2" style="fill:#bcbcbc"/><rect x="24.28" y="655.37" width="34.25" height="4.01" rx="2" ry="2" style="fill:#bcbcbc"/><rect x="11.47" y="648.3" width="34.25" height="4.01" rx="2" ry="2" style="fill:#f4f4f4"/><rect x="14.13" y="658.85" width="34.25" height="4.01" rx="2" ry="2" style="fill:#f4f4f4"/><rect x="22.28" y="653.61" width="34.25" height="4.01" rx="2" ry="2" style="fill:#f4f4f4"/><rect x="29.86" y="653.97" width="27.55" height="13.08" style="fill:#cf2d28"/><path d="M41.59,663.09a6.14,6.14,0,0,1-2,.36,3.1,3.1,0,0,1-3.39-3.33,3.31,3.31,0,0,1,3.2-3.42h.38a4.09,4.09,0,0,1,1.65.3l-.21.7a3.42,3.42,0,0,0-1.46-.28,2.47,2.47,0,0,0-2.66,2.66,2.42,2.42,0,0,0,2.55,2.67,2.79,2.79,0,0,0,1.14-.18v-2H39.42v-.69H41.6Z" style="fill:#fff"/><path d="M43.75,656.78v6.61H42.9v-6.61Z" style="fill:#fff"/><path d="M46.69,663.39l-2.16-6.61h.92l1,3.25c.28.89.53,1.7.71,2.47h0c.19-.76.46-1.6.76-2.46L49,656.78h1l-2.36,6.61Z" style="fill:#fff"/><path d="M49.94,662.88a.58.58,0,0,1,.54-.62h.05a.62.62,0,1,1-.59.65Z" style="fill:#fff"/><g style="opacity:0.30000001192092896"><path d="M55.16,695.56a11.31,11.31,0,0,0-20.7,3.76,6.6,6.6,0,0,1,5.08,3.22l-.87.49c-1.49-2.62-4.45-2.94-6.48-2.81a6.52,6.52,0,0,0,2.33,12.61H54.16a8.67,8.67,0,0,0,.94-17.28Z" style="fill:#231f20"/><path d="M27.79,691a7.14,7.14,0,0,0-7.14-5.86,7.32,7.32,0,0,0-5.74,2.73c1.49.25,3.47.93,4.31,2.78l-.91.41c-1-2.3-4.59-2.34-5.13-2.34a5.3,5.3,0,0,0-3.6,4.94,5.42,5.42,0,0,0,5.54,5.3H27.69a4,4,0,0,0,.1-8Z" style="fill:#231f20"/></g><path d="M53.16,693.56a11.31,11.31,0,0,0-20.7,3.76,6.6,6.6,0,0,1,5.08,3.22l-.87.49c-1.49-2.62-4.45-2.94-6.48-2.81a6.52,6.52,0,0,0,2.33,12.61H52.16a8.67,8.67,0,0,0,.94-17.28Z" style="fill:#d8d9d8"/><path d="M25.79,689a7.14,7.14,0,0,0-7.14-5.86,7.32,7.32,0,0,0-5.74,2.73c1.49.25,3.47.93,4.31,2.78l-.91.41c-1-2.3-4.59-2.34-5.13-2.34a5.3,5.3,0,0,0-3.6,4.94,5.42,5.42,0,0,0,5.54,5.3H25.69a4,4,0,0,0,.1-8Z" style="fill:#d8d9d8"/><circle cx="53.61" cy="714.92" r="1.26" style="fill:#77ccf2"/><circle cx="51.61" cy="717.92" r="1.26" style="fill:#77ccf2"/><circle cx="49.6" cy="720.92" r="1.26" style="fill:#77ccf2"/><circle cx="47.6" cy="723.92" r="1.26" style="fill:#77ccf2"/><circle cx="42.6" cy="714.92" r="1.26" style="fill:#77ccf2"/><circle cx="40.6" cy="717.92" r="1.26" style="fill:#77ccf2"/><circle cx="38.6" cy="720.92" r="1.26" style="fill:#77ccf2"/><circle cx="36.6" cy="723.92" r="1.26" style="fill:#77ccf2"/><circle cx="31.59" cy="714.92" r="1.26" style="fill:#77ccf2"/><circle cx="29.59" cy="717.92" r="1.26" style="fill:#77ccf2"/><circle cx="27.59" cy="720.92" r="1.26" style="fill:#77ccf2"/><circle cx="25.59" cy="723.92" r="1.26" style="fill:#77ccf2"/><circle cx="36.6" cy="714.92" r="1.26" style="fill:#fff"/><circle cx="34.6" cy="717.92" r="1.26" style="fill:#fff"/><circle cx="32.59" cy="720.92" r="1.26" style="fill:#fff"/><circle cx="30.59" cy="723.92" r="1.26" style="fill:#fff"/><circle cx="47.6" cy="714.92" r="1.26" style="fill:#fff"/><circle cx="45.6" cy="717.92" r="1.26" style="fill:#fff"/><circle cx="43.6" cy="720.92" r="1.26" style="fill:#fff"/><circle cx="41.6" cy="723.92" r="1.26" style="fill:#fff"/><circle cx="58.61" cy="714.92" r="1.26" style="fill:#fff"/><circle cx="56.61" cy="717.92" r="1.26" style="fill:#fff"/><circle cx="54.61" cy="720.92" r="1.26" style="fill:#fff"/><circle cx="52.61" cy="723.92" r="1.26" style="fill:#fff"/><rect y="1464.73" width="70" height="56" style="fill:#fff;fill-opacity:0"/><circle cx="43.06" cy="1481.38" r="15.33" style="fill:#efeb60;opacity:0.5099999904632568;isolation:isolate"/><circle cx="43.06" cy="1481.38" r="11.7" style="fill:#f6b31a;stroke:#feea02;stroke-miterlimit:10"/><g style="opacity:0.30000001192092896"><path d="M55.16,1487.61a11.31,11.31,0,0,0-20.7,3.76,6.6,6.6,0,0,1,5.08,3.22l-.87.49c-1.49-2.62-4.45-2.94-6.48-2.81a6.52,6.52,0,0,0,2.33,12.61H54.16a8.67,8.67,0,0,0,.94-17.28Z" style="fill:#231f20"/><path d="M27.79,1483a7.14,7.14,0,0,0-7.14-5.86,7.32,7.32,0,0,0-5.74,2.73c1.49.25,3.47.93,4.31,2.78l-.91.41c-1-2.3-4.59-2.34-5.13-2.34a5.3,5.3,0,0,0-3.6,4.94,5.42,5.42,0,0,0,5.54,5.3H27.69a4,4,0,0,0,.1-8Z" style="fill:#231f20"/></g><path d="M53.16,1485.6a11.31,11.31,0,0,0-20.7,3.76,6.6,6.6,0,0,1,5.08,3.22l-.87.49c-1.49-2.62-4.45-2.94-6.48-2.81a6.52,6.52,0,0,0,2.33,12.61H52.16a8.67,8.67,0,0,0,.94-17.28Z" style="fill:#d8d9d8"/><path d="M25.79,1481a7.14,7.14,0,0,0-7.14-5.86,7.32,7.32,0,0,0-5.74,2.73c1.49.25,3.47.93,4.31,2.78l-.91.41c-1-2.3-4.59-2.34-5.13-2.34a5.3,5.3,0,0,0-3.6,4.94,5.42,5.42,0,0,0,5.54,5.3H25.69a4,4,0,0,0,.1-8Z" style="fill:#d8d9d8"/><circle cx="47.29" cy="920.27" r="15.43" style="fill:#efeb60;opacity:0.5099999904632568;isolation:isolate"/><circle cx="47.29" cy="920.27" r="11.77" style="fill:#f6b31a;stroke:#feea02;stroke-miterlimit:10"/><g style="opacity:0.30000001192092896"><path d="M55.16,927.62a11.31,11.31,0,0,0-20.7,3.76,6.6,6.6,0,0,1,5.08,3.22l-.87.49c-1.49-2.62-4.45-2.94-6.48-2.81a6.52,6.52,0,0,0,2.33,12.61H54.16a8.67,8.67,0,0,0,.94-17.28Z" style="fill:#231f20"/><path d="M27.79,923a7.14,7.14,0,0,0-7.14-5.86,7.32,7.32,0,0,0-5.74,2.73c1.49.25,3.47.93,4.31,2.78l-.91.41c-1-2.3-4.59-2.34-5.13-2.34a5.3,5.3,0,0,0-3.6,4.94,5.42,5.42,0,0,0,5.54,5.3H27.69a4,4,0,0,0,.1-8h0Z" style="fill:#231f20"/></g><path d="M53.16,925.62a11.31,11.31,0,0,0-20.7,3.76,6.6,6.6,0,0,1,5.08,3.22l-.87.49c-1.49-2.62-4.45-2.94-6.48-2.81a6.52,6.52,0,0,0,2.33,12.61H52.16a8.67,8.67,0,0,0,.94-17.28Z" style="fill:#d8d9d8"/><path d="M25.79,921a7.14,7.14,0,0,0-7.14-5.86,7.32,7.32,0,0,0-5.74,2.73c1.49.25,3.47.93,4.31,2.78l-.91.41c-1-2.3-4.59-2.34-5.13-2.34a5.3,5.3,0,0,0-3.6,4.94,5.42,5.42,0,0,0,5.54,5.3H25.69a4,4,0,1,0,.1-8h0Z" style="fill:#d8d9d8"/><path d="M39.25,946.38h0a.74.74,0,0,1,.49.92l-1.24,4a.74.74,0,0,1-.92.49h0a.74.74,0,0,1-.49-.92l1.24-4A.74.74,0,0,1,39.25,946.38Z" style="fill:#77ccf2"/><path d="M47.57,946.38h0a.74.74,0,0,1,.49.92l-1.24,4a.74.74,0,0,1-.92.49h0a.74.74,0,0,1-.49-.92l1.24-4A.74.74,0,0,1,47.57,946.38Z" style="fill:#77ccf2"/><path d="M31.37,946.38h0a.74.74,0,0,1,.49.92l-1.24,4a.74.74,0,0,1-.92.49h0a.74.74,0,0,1-.49-.92l1.24-4A.74.74,0,0,1,31.37,946.38Z" style="fill:#77ccf2"/><path d="M55.53,946.39h0a.74.74,0,0,1,.47.9l-1.24,4a.74.74,0,0,1-.92.49h0a.74.74,0,0,1-.49-.92l1.24-4a.74.74,0,0,1,.93-.47Z" style="fill:#77ccf2"/><path d="M43.27,946.38h0a.74.74,0,0,1,.49.92l-1.24,4a.74.74,0,0,1-.92.49h0a.74.74,0,0,1-.49-.92l1.24-4A.74.74,0,0,1,43.27,946.38Z" style="fill:#fff"/><path d="M51.57,946.38h0a.74.74,0,0,1,.49.92l-1.24,4a.74.74,0,0,1-.92.49h0a.74.74,0,0,1-.49-.92l1.24-4A.74.74,0,0,1,51.57,946.38Z" style="fill:#fff"/><path d="M35.36,946.38h0a.74.74,0,0,1,.49.92l-1.24,4a.74.74,0,0,1-.92.49h0a.74.74,0,0,1-.49-.92l1.24-4A.74.74,0,0,1,35.36,946.38Z" style="fill:#fff"/><path d="M59.52,946.39h0a.74.74,0,0,1,.48.9l-1.24,4a.74.74,0,0,1-.92.49h0a.74.74,0,0,1-.49-.92l1.24-4A.74.74,0,0,1,59.52,946.39Z" style="fill:#fff"/><path d="M39.25,1004.41h0a.74.74,0,0,1,.49.92l-1.24,4a.74.74,0,0,1-.92.49h0a.74.74,0,0,1-.49-.92l1.24-4A.74.74,0,0,1,39.25,1004.41Z" style="fill:#77ccf2"/><path d="M47.57,1004.41h0a.74.74,0,0,1,.49.92l-1.24,4a.74.74,0,0,1-.92.49h0a.74.74,0,0,1-.49-.92l1.24-4A.74.74,0,0,1,47.57,1004.41Z" style="fill:#77ccf2"/><path d="M31.37,1004.41h0a.74.74,0,0,1,.49.92l-1.24,4a.74.74,0,0,1-.92.49h0a.74.74,0,0,1-.49-.92l1.24-4A.74.74,0,0,1,31.37,1004.41Z" style="fill:#77ccf2"/><path d="M55.53,1004.42h0a.74.74,0,0,1,.47.9l-1.24,4a.74.74,0,0,1-.92.49h0a.74.74,0,0,1-.49-.92l1.24-4a.74.74,0,0,1,.93-.47Z" style="fill:#77ccf2"/><path d="M43.27,1004.41h0a.74.74,0,0,1,.49.92l-1.24,4a.74.74,0,0,1-.92.49h0a.74.74,0,0,1-.49-.92l1.24-4A.74.74,0,0,1,43.27,1004.41Z" style="fill:#fff"/><path d="M51.57,1004.41h0a.74.74,0,0,1,.49.92l-1.24,4a.74.74,0,0,1-.92.49h0a.74.74,0,0,1-.49-.92l1.24-4A.74.74,0,0,1,51.57,1004.41Z" style="fill:#fff"/><path d="M35.36,1004.41h0a.74.74,0,0,1,.49.92l-1.24,4a.74.74,0,0,1-.92.49h0a.74.74,0,0,1-.49-.92l1.24-4A.74.74,0,0,1,35.36,1004.41Z" style="fill:#fff"/><path d="M59.52,1004.42h0a.74.74,0,0,1,.48.9l-1.24,4a.74.74,0,0,1-.92.49h0a.74.74,0,0,1-.49-.92l1.24-4A.74.74,0,0,1,59.52,1004.42Z" style="fill:#fff"/><path d="M39.25,1054.44h0a.74.74,0,0,1,.49.92l-1.24,4a.74.74,0,0,1-.92.49h0a.74.74,0,0,1-.49-.92l1.24-4A.74.74,0,0,1,39.25,1054.44Z" style="fill:#77ccf2"/><path d="M47.57,1054.44h0a.74.74,0,0,1,.49.92l-1.24,4a.74.74,0,0,1-.92.49h0a.74.74,0,0,1-.49-.92l1.24-4A.74.74,0,0,1,47.57,1054.44Z" style="fill:#77ccf2"/><path d="M31.37,1054.44h0a.74.74,0,0,1,.49.92l-1.24,4a.74.74,0,0,1-.92.49h0a.74.74,0,0,1-.49-.92l1.24-4A.74.74,0,0,1,31.37,1054.44Z" style="fill:#77ccf2"/><path d="M55.53,1054.46h0a.74.74,0,0,1,.47.9l-1.24,4a.74.74,0,0,1-.92.49h0a.74.74,0,0,1-.49-.92l1.24-4a.74.74,0,0,1,.93-.47Z" style="fill:#77ccf2"/><path d="M43.27,1054.44h0a.74.74,0,0,1,.49.92l-1.24,4a.74.74,0,0,1-.92.49h0a.74.74,0,0,1-.49-.92l1.24-4A.74.74,0,0,1,43.27,1054.44Z" style="fill:#fff"/><path d="M51.57,1054.44h0a.74.74,0,0,1,.49.92l-1.24,4a.74.74,0,0,1-.92.49h0a.74.74,0,0,1-.49-.92l1.24-4A.74.74,0,0,1,51.57,1054.44Z" style="fill:#fff"/><path d="M35.36,1054.44h0a.74.74,0,0,1,.49.92l-1.24,4a.74.74,0,0,1-.92.49h0a.74.74,0,0,1-.49-.92l1.24-4A.74.74,0,0,1,35.36,1054.44Z" style="fill:#fff"/><path d="M59.52,1054.46h0a.74.74,0,0,1,.48.9l-1.24,4a.74.74,0,0,1-.92.49h0a.74.74,0,0,1-.49-.92l1.24-4A.74.74,0,0,1,59.52,1054.46Z" style="fill:#fff"/><circle cx="43.81" cy="1085.58" r="13.71" style="fill:#efeb60;opacity:0.5099999904632568;isolation:isolate"/><circle cx="43.81" cy="1085.58" r="10.46" style="fill:#f6b31a;stroke:#feea02;stroke-miterlimit:10"/><circle cx="43.2" cy="1309.73" r="15.2" style="fill:#efeb60;opacity:0.5099999904632568;isolation:isolate"/><circle cx="43.2" cy="1309.73" r="11.6" style="fill:#f6b31a;stroke:#feea02;stroke-miterlimit:10"/><g style="opacity:0.30000001192092896"><path d="M55.16,1090.54a11.31,11.31,0,0,0-20.7,3.76,6.6,6.6,0,0,1,5.08,3.22l-.87.49c-1.49-2.62-4.45-2.94-6.48-2.81a6.52,6.52,0,0,0,2.33,12.61H54.16a8.67,8.67,0,0,0,.94-17.28Z" style="fill:#231f20"/><path d="M27.79,1086a7.14,7.14,0,0,0-7.14-5.86,7.32,7.32,0,0,0-5.74,2.73c1.49.25,3.47.93,4.31,2.78l-.91.41c-1-2.3-4.59-2.34-5.13-2.34a5.3,5.3,0,0,0-3.6,4.94,5.42,5.42,0,0,0,5.54,5.3H27.69a4,4,0,1,0,.1-8Z" style="fill:#231f20"/></g><path d="M38.24,1107.07h0a.74.74,0,0,1,.49.92l-1.24,4a.74.74,0,0,1-.92.49h0a.74.74,0,0,1-.49-.92l1.24-4A.74.74,0,0,1,38.24,1107.07Z" style="fill:#77ccf2"/><path d="M46.54,1107.07h0a.74.74,0,0,1,.49.92l-1.24,4a.74.74,0,0,1-.92.49h0a.74.74,0,0,1-.49-.92l1.24-4A.74.74,0,0,1,46.54,1107.07Z" style="fill:#77ccf2"/><path d="M30.16,1107.07h0a.74.74,0,0,1,.5.92h0l-1.23,4a.74.74,0,0,1-.92.5h0a.74.74,0,0,1-.5-.92h0l1.22-4.05A.74.74,0,0,1,30.16,1107.07Z" style="fill:#77ccf2"/><path d="M54.49,1107.07h0a.74.74,0,0,1,.49.92l-1.24,4a.74.74,0,0,1-.92.49h0a.74.74,0,0,1-.49-.92l1.24-4A.74.74,0,0,1,54.49,1107.07Z" style="fill:#77ccf2"/><path d="M42.24,1107.07h0a.74.74,0,0,1,.49.92l-1.24,4a.74.74,0,0,1-.92.49h0a.74.74,0,0,1-.49-.92l1.24-4A.74.74,0,0,1,42.24,1107.07Z" style="fill:#fff"/><path d="M50.55,1107.07h0a.74.74,0,0,1,.49.92l-1.24,4a.74.74,0,0,1-.92.49h0a.74.74,0,0,1-.49-.92l1.24-4A.74.74,0,0,1,50.55,1107.07Z" style="fill:#fff"/><path d="M34.36,1107.07h0a.74.74,0,0,1,.49.92l-1.24,4a.74.74,0,0,1-.92.49h0a.74.74,0,0,1-.49-.92l1.24-4A.74.74,0,0,1,34.36,1107.07Z" style="fill:#fff"/><path d="M58.5,1107.07h0a.74.74,0,0,1,.49.92l-1.24,4a.74.74,0,0,1-.92.49h0a.74.74,0,0,1-.49-.92l1.24-4A.74.74,0,0,1,58.5,1107.07Z" style="fill:#fff"/><path d="M36.24,1113.09h0a.74.74,0,0,1,.49.92l-1.24,4a.74.74,0,0,1-.92.49h0a.74.74,0,0,1-.49-.92l1.24-4A.74.74,0,0,1,36.24,1113.09Z" style="fill:#77ccf2"/><path d="M44.53,1113.08h0a.74.74,0,0,1,.49.92l-1.24,4a.74.74,0,0,1-.92.49h0a.74.74,0,0,1-.49-.92l1.24-4A.74.74,0,0,1,44.53,1113.08Z" style="fill:#77ccf2"/><path d="M28.35,1113.08h0a.74.74,0,0,1,.49.92l-1.24,4a.74.74,0,0,1-.92.49h0a.74.74,0,0,1-.49-.92l1.24-4A.74.74,0,0,1,28.35,1113.08Z" style="fill:#77ccf2"/><path d="M52.49,1113.09h0a.74.74,0,0,1,.49.92l-1.24,4a.74.74,0,0,1-.92.49h0a.74.74,0,0,1-.49-.92l1.24-4A.74.74,0,0,1,52.49,1113.09Z" style="fill:#77ccf2"/><path d="M40.24,1113.08h0a.74.74,0,0,1,.49.92l-1.24,4a.74.74,0,0,1-.92.49h0a.74.74,0,0,1-.49-.92l1.24-4A.74.74,0,0,1,40.24,1113.08Z" style="fill:#fff"/><path d="M48.55,1113.08h0a.74.74,0,0,1,.49.92l-1.24,4a.74.74,0,0,1-.92.49h0a.74.74,0,0,1-.49-.92l1.24-4A.74.74,0,0,1,48.55,1113.08Z" style="fill:#fff"/><path d="M32.35,1113.09h0a.74.74,0,0,1,.49.92l-1.24,4a.74.74,0,0,1-.92.49h0a.74.74,0,0,1-.49-.92l1.24-4A.74.74,0,0,1,32.35,1113.09Z" style="fill:#fff"/><path d="M56.49,1113.08h0a.74.74,0,0,1,.49.92l-1.24,4a.74.74,0,0,1-.92.49h0a.74.74,0,0,1-.49-.92l1.24-4A.74.74,0,0,1,56.49,1113.08Z" style="fill:#fff"/><path d="M53.16,1088.54a11.31,11.31,0,0,0-20.7,3.76,6.6,6.6,0,0,1,5.08,3.22l-.87.49c-1.49-2.62-4.45-2.94-6.48-2.81a6.52,6.52,0,0,0,2.33,12.61H52.16a8.67,8.67,0,0,0,.94-17.28Z" style="fill:#d8d9d8"/><path d="M25.79,1084a7.14,7.14,0,0,0-7.14-5.86,7.32,7.32,0,0,0-5.74,2.73c1.49.25,3.47.93,4.31,2.78l-.91.41c-1-2.3-4.59-2.34-5.13-2.34a5.3,5.3,0,0,0-3.6,4.94,5.42,5.42,0,0,0,5.54,5.3H25.69a4,4,0,0,0,.1-8Z" style="fill:#d8d9d8"/><rect y="847.07" width="70" height="56" style="fill:#fff;fill-opacity:0"/><g style="opacity:0.30000001192092896"><path d="M55.16,1036.07a11.31,11.31,0,0,0-20.7,3.76,6.6,6.6,0,0,1,5.08,3.22l-.87.49c-1.49-2.62-4.45-2.94-6.48-2.81a6.52,6.52,0,0,0,2.33,12.61H54.16a8.67,8.67,0,0,0,.94-17.28Z" style="fill:#231f20"/><path d="M27.79,1031.49a7.14,7.14,0,0,0-7.14-5.86,7.32,7.32,0,0,0-5.74,2.73c1.49.25,3.47.93,4.31,2.78l-.91.41c-1-2.3-4.59-2.34-5.13-2.34a5.3,5.3,0,0,0-3.6,4.94,5.42,5.42,0,0,0,5.54,5.3H27.69a4,4,0,1,0,.1-8Z" style="fill:#231f20"/></g><path d="M53.16,1034.07a11.31,11.31,0,0,0-20.7,3.76,6.6,6.6,0,0,1,5.08,3.22l-.87.49c-1.49-2.62-4.45-2.94-6.48-2.81a6.52,6.52,0,0,0,2.33,12.61H52.16a8.67,8.67,0,0,0,.94-17.28Z" style="fill:#d8d9d8"/><path d="M25.79,1029.49a7.14,7.14,0,0,0-7.14-5.86,7.32,7.32,0,0,0-5.74,2.73c1.49.25,3.47.93,4.31,2.78l-.91.41c-1-2.3-4.59-2.34-5.13-2.34a5.3,5.3,0,0,0-3.6,4.94,5.42,5.42,0,0,0,5.54,5.3H25.69a4,4,0,0,0,.1-8Z" style="fill:#d8d9d8"/><circle cx="46.86" cy="752.56" r="15.43" style="fill:#efeb60;opacity:0.5099999904632568;isolation:isolate"/><circle cx="46.86" cy="752.56" r="11.77" style="fill:#f6b31a;stroke:#feea02;stroke-miterlimit:10"/><g style="opacity:0.30000001192092896"><path d="M55.16,758.07a11.31,11.31,0,0,0-20.7,3.76A6.6,6.6,0,0,1,39.54,765l-.87.49c-1.49-2.62-4.45-2.94-6.48-2.81a6.52,6.52,0,0,0,2.33,12.61H54.16A8.67,8.67,0,0,0,55.1,758Z" style="fill:#231f20"/><path d="M27.79,753.49a7.14,7.14,0,0,0-7.14-5.86,7.32,7.32,0,0,0-5.74,2.73c1.49.25,3.47.93,4.31,2.78l-.91.41c-1-2.3-4.59-2.34-5.13-2.34a5.3,5.3,0,0,0-3.6,4.94,5.42,5.42,0,0,0,5.54,5.3H27.69a4,4,0,0,0,.1-8Z" style="fill:#231f20"/></g><path d="M53.16,756.07a11.31,11.31,0,0,0-20.7,3.76A6.6,6.6,0,0,1,37.54,763l-.87.49c-1.49-2.62-4.45-2.94-6.48-2.81a6.52,6.52,0,0,0,2.33,12.61H52.16A8.67,8.67,0,0,0,53.1,756Z" style="fill:#d8d9d8"/><path d="M25.79,751.49a7.14,7.14,0,0,0-7.14-5.86,7.32,7.32,0,0,0-5.74,2.73c1.49.25,3.47.93,4.31,2.78l-.91.41c-1-2.3-4.59-2.34-5.13-2.34a5.3,5.3,0,0,0-3.6,4.94,5.42,5.42,0,0,0,5.54,5.3H25.69a4,4,0,0,0,.1-8Z" style="fill:#d8d9d8"/><path d="M54.54,775.55h0a.74.74,0,0,1,.49.92l-1.24,4a.74.74,0,0,1-.92.49h0a.74.74,0,0,1-.49-.92l1.24-4A.74.74,0,0,1,54.54,775.55Z" style="fill:#fff"/><circle cx="45.42" cy="978.91" r="17.5" style="fill:#43444d;opacity:0.25;isolation:isolate"/><path d="M53.3,981.19a.68.68,0,0,0,.68-.68h0v-2.32a.68.68,0,0,0-1.36,0h0v2.32a.68.68,0,0,0,.67.69h0Z" style="fill:#fff"/><path d="M55.14,979.35a.68.68,0,0,0-.68-.68H52.14a.68.68,0,1,0,0,1.36h2.35A.68.68,0,0,0,55.14,979.35Z" style="fill:#fff"/><path d="M31.32,969.76a.68.68,0,0,0,.68-.68h0v-2.32a.68.68,0,0,0-1.36,0h0v2.32a.68.68,0,0,0,.67.69h0Z" style="fill:#fff"/><path d="M33.17,967.92a.68.68,0,0,0-.68-.68H30.16a.68.68,0,0,0,0,1.36h2.33a.68.68,0,0,0,.69-.67h0Z" style="fill:#fff"/><path d="M50.57,967.91a.68.68,0,0,0,.68-.68h0V964.9a.68.68,0,0,0-1.36,0h0v2.32a.68.68,0,0,0,.67.69h0Z" style="fill:#fff"/><path d="M52.41,966.07a.68.68,0,0,0-.68-.68H49.41a.68.68,0,1,0,0,1.36h2.35A.68.68,0,0,0,52.41,966.07Z" style="fill:#fff"/><path d="M45.64,966.5a12.46,12.46,0,0,1,4.35-.23,12.48,12.48,0,0,0,5.37,22.82,12.49,12.49,0,1,1-9.72-22.6Z" style="fill:#626472;opacity:0.18000000715255737;isolation:isolate"/><path d="M42.27,967.64a11.77,11.77,0,0,1,4.11-.22A11.78,11.78,0,0,0,51.45,989a11.8,11.8,0,1,1-9.18-21.34Z" style="fill:#fdfce9"/><circle cx="44.6" cy="1142.99" r="16.69" style="fill:#43444d;opacity:0.25;isolation:isolate"/><path d="M52.12,1145.17a.65.65,0,0,0,.65-.65h0v-2.21a.65.65,0,1,0-1.29,0v2.21A.65.65,0,0,0,52.12,1145.17Z" style="fill:#fff"/><path d="M53.88,1143.41a.65.65,0,0,0-.65-.65H51a.65.65,0,0,0-.17,1.29h2.38a.65.65,0,0,0,.67-.63h0Z" style="fill:#fff"/><path d="M31.17,1134.27a.65.65,0,0,0,.65-.65h0v-2.21a.65.65,0,1,0-1.29,0v2.21A.65.65,0,0,0,31.17,1134.27Z" style="fill:#fff"/><path d="M32.92,1132.51a.65.65,0,0,0-.65-.65H30.06a.65.65,0,0,0-.17,1.29h2.38A.65.65,0,0,0,32.92,1132.51Z" style="fill:#fff"/><path d="M49.51,1132.51a.65.65,0,0,0,.65-.65h0v-2.21a.65.65,0,1,0-1.29,0v2.21A.65.65,0,0,0,49.51,1132.51Z" style="fill:#fff"/><path d="M51.27,1130.75a.65.65,0,0,0-.65-.65H48.41a.65.65,0,0,0-.17,1.29h2.38A.65.65,0,0,0,51.27,1130.75Z" style="fill:#fff"/><path d="M43.86,1131.38a11.88,11.88,0,0,1,4.15-.22,11.9,11.9,0,0,0,5.12,21.76,11.91,11.91,0,1,1-9.27-21.54Z" style="fill:#626472;opacity:0.18000000715255737;isolation:isolate"/><path d="M41.61,1132.25a11.22,11.22,0,0,1,3.92-.21,11.23,11.23,0,0,0,4.83,20.55,11.25,11.25,0,1,1-8.75-20.35Z" style="fill:#fdfce9"/><circle cx="38.41" cy="1369.15" r="17.5" style="fill:#43444d;opacity:0.25;isolation:isolate"/><path d="M46.29,1371.44a.68.68,0,0,0,.68-.68h0v-2.32a.68.68,0,1,0-1.36,0v2.32a.68.68,0,0,0,.67.69h0Z" style="fill:#fff"/><path d="M48.14,1369.6a.68.68,0,0,0-.68-.68H45.13a.68.68,0,0,0,0,1.36h2.33a.68.68,0,0,0,.69-.67h0Z" style="fill:#fff"/><path d="M24.32,1360a.68.68,0,0,0,.68-.68h0V1357a.68.68,0,1,0-1.36,0v2.32a.68.68,0,0,0,.68.68Z" style="fill:#fff"/><path d="M26.16,1358.16a.68.68,0,0,0-.68-.68H23.16a.68.68,0,0,0,0,1.36h2.33A.68.68,0,0,0,26.16,1358.16Z" style="fill:#fff"/><path d="M43.56,1358.16a.68.68,0,0,0,.68-.68h0v-2.32a.68.68,0,1,0-1.36,0h0v2.32a.68.68,0,0,0,.67.69h0Z" style="fill:#fff"/><path d="M45.41,1356.32a.68.68,0,0,0-.68-.68H42.4a.68.68,0,0,0,0,1.36h2.33a.68.68,0,0,0,.69-.67h0Z" style="fill:#fff"/><path d="M38.37,1357.31a11.88,11.88,0,0,1,4.15-.22,11.9,11.9,0,0,0,5.12,21.76,11.91,11.91,0,1,1-9.27-21.54Z" style="fill:#626472;opacity:0.18000000715255737;isolation:isolate"/><path d="M35.27,1357.89a11.77,11.77,0,0,1,4.11-.22,11.78,11.78,0,0,0,5.07,21.56,11.8,11.8,0,1,1-9.18-21.34Z" style="fill:#fdfce9"/><circle cx="41.41" cy="2095.65" r="17.5" style="fill:#43444d;opacity:0.25;isolation:isolate"/><path d="M49.29,2097.93a.68.68,0,0,0,.68-.68h0v-2.32a.68.68,0,0,0-1.36,0v2.32a.68.68,0,0,0,.67.69h0Z" style="fill:#fff"/><path d="M51.14,2096.09a.68.68,0,0,0-.68-.68H48.13a.68.68,0,0,0,0,1.36h2.32a.68.68,0,0,0,.69-.67h0Z" style="fill:#fff"/><path d="M27.32,2086.5a.68.68,0,0,0,.68-.68h0v-2.32a.68.68,0,0,0-1.36,0v2.32a.68.68,0,0,0,.67.69h0Z" style="fill:#fff"/><path d="M29.17,2084.65a.68.68,0,0,0-.68-.68H26.16a.68.68,0,1,0,0,1.36h2.32a.68.68,0,0,0,.69-.67h0Z" style="fill:#fff"/><path d="M46.56,2084.65a.68.68,0,0,0,.68-.68h0v-2.32a.68.68,0,0,0-1.36,0V2084A.68.68,0,0,0,46.56,2084.65Z" style="fill:#fff"/><path d="M48.41,2082.81a.68.68,0,0,0-.68-.68H45.4a.68.68,0,1,0,0,1.36h2.32a.68.68,0,0,0,.69-.67h0Z" style="fill:#fff"/><path d="M41.81,2083.8a11.88,11.88,0,0,1,4.15-.22,11.9,11.9,0,0,0,5.12,21.76,11.91,11.91,0,1,1-9.27-21.54Z" style="fill:#626472;opacity:0.18000000715255737;isolation:isolate"/><path d="M38.27,2084.38a11.77,11.77,0,0,1,4.11-.22,11.78,11.78,0,0,0,5.07,21.56,11.8,11.8,0,1,1-9.18-21.34Z" style="fill:#fdfce9"/><circle cx="43.41" cy="1540.25" r="17.5" style="fill:#43444d;opacity:0.25;isolation:isolate"/><path d="M51.3,1542.54a.68.68,0,0,0,.68-.68h0v-2.32a.68.68,0,1,0-1.36,0h0v2.32a.68.68,0,0,0,.67.69h0Z" style="fill:#fff"/><path d="M53.14,1540.7a.68.68,0,0,0-.68-.68H50.13a.68.68,0,0,0,0,1.36h2.33a.68.68,0,0,0,.69-.67h0Z" style="fill:#fff"/><path d="M29.32,1531.11a.68.68,0,0,0,.68-.68h0v-2.32a.68.68,0,1,0-1.36,0v2.32a.68.68,0,0,0,.67.69h0Z" style="fill:#fff"/><path d="M31.17,1529.26a.68.68,0,0,0-.68-.68H28.16a.68.68,0,0,0,0,1.36h2.33a.68.68,0,0,0,.69-.67h0Z" style="fill:#fff"/><path d="M48.56,1529.26a.68.68,0,0,0,.68-.68h0v-2.32a.68.68,0,1,0-1.36,0h0v2.32a.68.68,0,0,0,.67.69h0Z" style="fill:#fff"/><path d="M50.41,1527.42a.68.68,0,0,0-.68-.68H47.4a.68.68,0,0,0,0,1.36h2.33a.68.68,0,0,0,.69-.67h0Z" style="fill:#fff"/><path d="M43.38,1528.65a11.88,11.88,0,0,1,4.15-.22,11.9,11.9,0,0,0,5.12,21.76,11.91,11.91,0,1,1-9.27-21.54Z" style="fill:#626472;opacity:0.18000000715255737;isolation:isolate"/><path d="M40.27,1529a11.77,11.77,0,0,1,4.11-.22,11.78,11.78,0,0,0,5.07,21.56A11.8,11.8,0,1,1,40.27,1529Z" style="fill:#fdfce9"/><g style="opacity:0.30000001192092896"><path d="M55.16,986.47a11.31,11.31,0,0,0-20.7,3.76,6.6,6.6,0,0,1,5.08,3.22l-.87.49c-1.49-2.62-4.45-2.94-6.48-2.81a6.52,6.52,0,0,0,2.33,12.61H54.16a8.67,8.67,0,0,0,.94-17.28Z" style="fill:#231f20"/><path d="M27.79,981.9a7.14,7.14,0,0,0-7.14-5.9,7.32,7.32,0,0,0-5.74,2.73c1.49.25,3.47.93,4.31,2.78l-.91.41c-1-2.3-4.59-2.34-5.13-2.34a5.3,5.3,0,0,0-3.6,4.94,5.42,5.42,0,0,0,5.54,5.3H27.69a4,4,0,0,0,.1-8Z" style="fill:#231f20"/></g><path d="M53.16,984.47a11.31,11.31,0,0,0-20.7,3.76,6.6,6.6,0,0,1,5.08,3.22l-.87.49c-1.49-2.62-4.45-2.94-6.48-2.81a6.52,6.52,0,0,0,2.33,12.61H52.16a8.67,8.67,0,0,0,.94-17.28Z" style="fill:#d8d9d8"/><path d="M25.79,979.9a7.14,7.14,0,0,0-7.14-5.9,7.32,7.32,0,0,0-5.74,2.73c1.49.25,3.47.93,4.31,2.78l-.91.41c-1-2.3-4.59-2.34-5.13-2.34a5.3,5.3,0,0,0-3.6,4.94,5.42,5.42,0,0,0,5.54,5.3H25.69a4,4,0,0,0,.1-8Z" style="fill:#d8d9d8"/><circle cx="41.41" cy="809.17" r="17.5" style="fill:#43444d;opacity:0.25;isolation:isolate"/><path d="M49.29,811.45a.68.68,0,0,0,.68-.68h0v-2.32a.68.68,0,0,0-1.36,0v2.32a.68.68,0,0,0,.67.69h0Z" style="fill:#fff"/><path d="M51.14,809.61a.68.68,0,0,0-.68-.68H48.13a.68.68,0,1,0,0,1.36h2.35a.68.68,0,0,0,.69-.67h0Z" style="fill:#fff"/><path d="M27.32,800a.68.68,0,0,0,.68-.68h0V797a.68.68,0,0,0-1.36,0v2.32A.68.68,0,0,0,27.32,800Z" style="fill:#fff"/><path d="M29.17,798.17a.68.68,0,0,0-.68-.68H26.16a.68.68,0,0,0,0,1.36h2.33a.68.68,0,0,0,.69-.67h0Z" style="fill:#fff"/><path d="M46.56,798.17a.68.68,0,0,0,.68-.68h0v-2.32a.68.68,0,0,0-1.36,0v2.32a.68.68,0,0,0,.67.69h0Z" style="fill:#fff"/><path d="M48.41,796.33a.68.68,0,0,0-.68-.68H45.4a.68.68,0,1,0,0,1.36h2.35a.68.68,0,0,0,.69-.67h0Z" style="fill:#fff"/><path d="M40.64,796.76a12.46,12.46,0,0,1,4.35-.23,12.48,12.48,0,0,0,5.37,22.82,12.49,12.49,0,1,1-9.72-22.6Z" style="fill:#626472;opacity:0.18000000715255737;isolation:isolate"/><path d="M38.27,797.9a11.77,11.77,0,0,1,4.11-.22,11.78,11.78,0,0,0,5.07,21.56,11.8,11.8,0,1,1-9.18-21.34Z" style="fill:#fdfce9"/><g style="opacity:0.30000001192092896"><path d="M55.16,815.73a11.31,11.31,0,0,0-20.7,3.76,6.6,6.6,0,0,1,5.08,3.22l-.87.49c-1.49-2.62-4.45-2.94-6.48-2.81A6.52,6.52,0,0,0,34.52,833H54.16a8.67,8.67,0,0,0,.94-17.28Z" style="fill:#231f20"/><path d="M27.79,811.16a7.14,7.14,0,0,0-7.14-5.86,7.32,7.32,0,0,0-5.74,2.7c1.49.25,3.47.93,4.31,2.78l-.91.41c-1-2.3-4.59-2.34-5.13-2.34a5.3,5.3,0,0,0-3.6,4.94,5.42,5.42,0,0,0,5.54,5.3H27.69a4,4,0,0,0,.1-8Z" style="fill:#231f20"/></g><path d="M53.16,813.73a11.31,11.31,0,0,0-20.7,3.76,6.6,6.6,0,0,1,5.08,3.22l-.87.49c-1.49-2.62-4.45-2.94-6.48-2.81A6.52,6.52,0,0,0,32.52,831H52.16a8.67,8.67,0,0,0,.94-17.28Z" style="fill:#d8d9d8"/><path d="M25.79,809.15a7.14,7.14,0,0,0-7.14-5.86A7.32,7.32,0,0,0,12.91,806c1.49.25,3.47.93,4.31,2.78l-.91.41c-1-2.3-4.59-2.34-5.13-2.34a5.3,5.3,0,0,0-3.6,4.94,5.42,5.42,0,0,0,5.54,5.3H25.69a4,4,0,0,0,.1-8Z" style="fill:#d8d9d8"/><path d="M37.26,834.32h0a.74.74,0,0,1,.49.92l-1.24,4a.74.74,0,0,1-.92.49h0a.74.74,0,0,1-.49-.92l1.24-4A.74.74,0,0,1,37.26,834.32Z" style="fill:#77ccf2"/><path d="M42.57,837.1h0a.74.74,0,0,1,.49.92l-1.24,4a.74.74,0,0,1-.92.49h0a.74.74,0,0,1-.49-.92l1.24-4A.74.74,0,0,1,42.57,837.1Z" style="fill:#77ccf2"/><path d="M29.37,834.31h0a.74.74,0,0,1,.49.92l-1.24,4a.74.74,0,0,1-.92.49h0a.74.74,0,0,1-.49-.92l1.24-4A.74.74,0,0,1,29.37,834.31Z" style="fill:#77ccf2"/><path d="M50.53,834.22h0a.74.74,0,0,1,.49.92l-1.24,4a.74.74,0,0,1-.92.49h0a.74.74,0,0,1-.49-.92l1.24-4A.74.74,0,0,1,50.53,834.22Z" style="fill:#77ccf2"/><path d="M41.26,833.32h0a.74.74,0,0,1,.49.92l-1.24,4a.74.74,0,0,1-.92.49h0a.74.74,0,0,1-.49-.92l1.24-4A.74.74,0,0,1,41.26,833.32Z" style="fill:#fff"/><path d="M46.58,836.09h0a.74.74,0,0,1,.49.92l-1.24,4a.74.74,0,0,1-.92.49h0a.74.74,0,0,1-.49-.92l1.24-4A.74.74,0,0,1,46.58,836.09Z" style="fill:#fff"/><path d="M33.37,833.32h0a.74.74,0,0,1,.49.92l-1.24,4a.74.74,0,0,1-.92.49h0a.74.74,0,0,1-.49-.92l1.24-4A.74.74,0,0,1,33.37,833.32Z" style="fill:#fff"/><path d="M54.53,833.22h0a.74.74,0,0,1,.49.92l-1.24,4a.74.74,0,0,1-.92.49h0a.74.74,0,0,1-.49-.92l1.24-4A.74.74,0,0,1,54.53,833.22Z" style="fill:#fff"/><polygon points="49.91 839.55 66.42 839.55 58.17 825.62 49.91 839.55" style="fill:#fff"/><path d="M68.23,840.58H48.1l10.07-17Zm-16.51-2.06H64.61l-6.44-10.87Z" style="fill:#cf2d28"/><path d="M58.31,830.32a7.93,7.93,0,0,0-.81,2.3c0,.73,1.35,1.09,1.35,2.18s-2.55,2.12-2.55,2.12" style="fill:none;stroke:#231f20;stroke-miterlimit:10"/><path d="M58.43,830.32a4.72,4.72,0,0,0-.58,1.77c0,.73,1.8.68,2.14,2.11.25,1.06-.89,2.73-.89,2.73" style="fill:none;stroke:#231f20;stroke-miterlimit:10"/><g style="opacity:0.30000001192092896"><path d="M55.16,860.85a11.31,11.31,0,0,0-20.7,3.76,6.6,6.6,0,0,1,5.08,3.22l-.87.49c-1.49-2.62-4.45-2.94-6.48-2.81a6.52,6.52,0,0,0,2.33,12.61H54.16a8.67,8.67,0,0,0,.94-17.28Z" style="fill:#231f20"/><path d="M27.79,856.28a7.14,7.14,0,0,0-7.14-5.86,7.32,7.32,0,0,0-5.74,2.73c1.49.25,3.47.93,4.31,2.78l-.91.41c-1-2.3-4.59-2.34-5.13-2.34a5.3,5.3,0,0,0-3.6,5,5.42,5.42,0,0,0,5.54,5.3H27.69a4,4,0,0,0,.1-8Z" style="fill:#231f20"/></g><path d="M53.16,858.85a11.31,11.31,0,0,0-20.7,3.76,6.6,6.6,0,0,1,5.08,3.22l-.87.49c-1.49-2.62-4.45-2.94-6.48-2.81a6.52,6.52,0,0,0,2.33,12.61H52.16a8.67,8.67,0,0,0,.94-17.28Z" style="fill:#d8d9d8"/><path d="M25.79,854.28a7.14,7.14,0,0,0-7.14-5.86,7.32,7.32,0,0,0-5.74,2.73c1.49.25,3.47.93,4.31,2.78l-.91.41c-1-2.3-4.59-2.34-5.13-2.34a5.3,5.3,0,0,0-3.6,5,5.42,5.42,0,0,0,5.54,5.3H25.69a4,4,0,1,0,.1-8Z" style="fill:#d8d9d8"/><path d="M37.26,880.44h0a.74.74,0,0,1,.49.92l-1.24,4a.74.74,0,0,1-.92.49h0a.74.74,0,0,1-.49-.92l1.24-4A.74.74,0,0,1,37.26,880.44Z" style="fill:#77ccf2"/><path d="M42.58,884.22h0a.74.74,0,0,1,.49.92l-1.24,4a.74.74,0,0,1-.92.49h0a.74.74,0,0,1-.49-.92l1.24-4A.74.74,0,0,1,42.58,884.22Z" style="fill:#77ccf2"/><path d="M29.37,880.43h0a.74.74,0,0,1,.49.92l-1.24,4a.74.74,0,0,1-.92.49h0a.74.74,0,0,1-.49-.92l1.24-4A.74.74,0,0,1,29.37,880.43Z" style="fill:#77ccf2"/><path d="M50.53,881.34h0a.74.74,0,0,1,.49.92l-1.24,4a.74.74,0,0,1-.92.49h0a.74.74,0,0,1-.49-.92l1.24-4A.74.74,0,0,1,50.53,881.34Z" style="fill:#77ccf2"/><path d="M41.26,879.43h0a.74.74,0,0,1,.49.92l-1.24,4a.74.74,0,0,1-.92.49h0a.74.74,0,0,1-.49-.92l1.24-4A.74.74,0,0,1,41.26,879.43Z" style="fill:#fff"/><path d="M46.57,883.22h0a.74.74,0,0,1,.49.92l-1.24,4a.74.74,0,0,1-.92.49h0a.74.74,0,0,1-.49-.92l1.24-4A.74.74,0,0,1,46.57,883.22Z" style="fill:#fff"/><path d="M33.37,879.44h0a.74.74,0,0,1,.49.92l-1.24,4a.74.74,0,0,1-.92.49h0a.74.74,0,0,1-.49-.92l1.24-4A.74.74,0,0,1,33.37,879.44Z" style="fill:#fff"/><path d="M54.53,880.34h0a.74.74,0,0,1,.49.92l-1.24,4a.74.74,0,0,1-.92.49h0a.74.74,0,0,1-.49-.92l1.24-4A.74.74,0,0,1,54.53,880.34Z" style="fill:#fff"/><polygon points="50.91 886.67 67.42 886.67 59.17 872.75 50.91 886.67" style="fill:#fff"/><path d="M69.23,887.7H49.1l10.07-17Zm-16.51-2.06H65.61l-6.44-10.87Z" style="fill:#cf2d28"/><path d="M59.31,877.45a7.93,7.93,0,0,0-.81,2.3c0,.73,1.35,1.09,1.35,2.18S57.3,884,57.3,884" style="fill:none;stroke:#231f20;stroke-miterlimit:10"/><path d="M59.43,877.45a4.72,4.72,0,0,0-.58,1.77c0,.73,1.8.68,2.14,2.11.25,1.06-.89,2.73-.89,2.73" style="fill:none;stroke:#231f20;stroke-miterlimit:10"/><g style="opacity:0.30000001192092896"><path d="M55.16,1149.58a11.31,11.31,0,0,0-20.7,3.76,6.6,6.6,0,0,1,5.08,3.22l-.87.49c-1.49-2.62-4.45-2.94-6.48-2.81a6.52,6.52,0,0,0,2.33,12.61H54.16a8.67,8.67,0,0,0,.94-17.28Z" style="fill:#231f20"/><path d="M27.79,1145a7.14,7.14,0,0,0-7.14-5.86,7.32,7.32,0,0,0-5.74,2.73c1.49.25,3.47.93,4.31,2.78l-.91.41c-1-2.3-4.59-2.34-5.13-2.34a5.3,5.3,0,0,0-3.6,4.94,5.42,5.42,0,0,0,5.54,5.3H27.69a4,4,0,1,0,.1-8Z" style="fill:#231f20"/></g><path d="M53.16,1147.58a11.31,11.31,0,0,0-20.7,3.76,6.6,6.6,0,0,1,5.08,3.22l-.87.49c-1.49-2.62-4.45-2.94-6.48-2.81a6.52,6.52,0,0,0,2.33,12.61H52.16a8.67,8.67,0,0,0,.94-17.28Z" style="fill:#d8d9d8"/><path d="M25.79,1143a7.14,7.14,0,0,0-7.14-5.86,7.32,7.32,0,0,0-5.74,2.73c1.49.25,3.47.93,4.31,2.78l-.91.41c-1-2.3-4.59-2.34-5.13-2.34a5.3,5.3,0,0,0-3.6,4.94,5.42,5.42,0,0,0,5.54,5.3H25.69a4,4,0,1,0,.1-8Z" style="fill:#d8d9d8"/><rect y="1181.57" width="70" height="56" style="fill:#fff;fill-opacity:0"/><g style="opacity:0.30000001192092896"><path d="M55.16,1200.44a11.31,11.31,0,0,0-20.7,3.76,6.6,6.6,0,0,1,5.08,3.22l-.87.49c-1.49-2.62-4.45-2.94-6.48-2.81a6.52,6.52,0,0,0,2.33,12.61H54.16a8.67,8.67,0,0,0,.94-17.28Z" style="fill:#231f20"/><path d="M27.79,1195.86a7.14,7.14,0,0,0-7.14-5.86,7.32,7.32,0,0,0-5.74,2.73c1.49.25,3.47.93,4.31,2.78l-.91.41c-1-2.3-4.59-2.34-5.13-2.34a5.3,5.3,0,0,0-3.6,4.94,5.42,5.42,0,0,0,5.54,5.3H27.69a4,4,0,1,0,.1-8Z" style="fill:#231f20"/></g><path d="M53.16,1198.44a11.31,11.31,0,0,0-20.7,3.76,6.6,6.6,0,0,1,5.08,3.22l-.87.49c-1.49-2.62-4.45-2.94-6.48-2.81a6.52,6.52,0,0,0,2.33,12.61H52.16a8.67,8.67,0,0,0,.94-17.28Z" style="fill:#d8d9d8"/><path d="M25.79,1193.86a7.14,7.14,0,0,0-7.14-5.86,7.32,7.32,0,0,0-5.74,2.73c1.49.25,3.47.93,4.31,2.78l-.91.41c-1-2.3-4.59-2.34-5.13-2.34a5.3,5.3,0,0,0-3.6,4.94,5.42,5.42,0,0,0,5.54,5.3H25.69a4,4,0,0,0,.1-8Z" style="fill:#d8d9d8"/><g style="opacity:0.30000001192092896"><path d="M55.16,1313.24a11.31,11.31,0,0,0-20.7,3.76,6.6,6.6,0,0,1,5.08,3.22l-.87.49c-1.49-2.62-4.45-2.94-6.48-2.81a6.52,6.52,0,0,0,2.33,12.61H54.16a8.67,8.67,0,0,0,.94-17.28Z" style="fill:#231f20"/><path d="M27.79,1308.66a7.14,7.14,0,0,0-7.14-5.86,7.32,7.32,0,0,0-5.74,2.73c1.49.25,3.47.93,4.31,2.78l-.91.41c-1-2.3-4.59-2.34-5.13-2.34a5.3,5.3,0,0,0-3.6,4.94,5.42,5.42,0,0,0,5.54,5.3H27.69a4,4,0,1,0,.1-8Z" style="fill:#231f20"/></g><path d="M53.16,1311.24a11.31,11.31,0,0,0-20.7,3.76,6.6,6.6,0,0,1,5.08,3.22l-.87.49c-1.49-2.62-4.45-2.94-6.48-2.81a6.52,6.52,0,0,0,2.33,12.61H52.16a8.67,8.67,0,0,0,.94-17.28Z" style="fill:#d8d9d8"/><path d="M25.79,1306.66a7.14,7.14,0,0,0-7.14-5.86,7.32,7.32,0,0,0-5.74,2.73c1.49.25,3.47.93,4.31,2.78l-.91.41c-1-2.3-4.59-2.34-5.13-2.34a5.3,5.3,0,0,0-3.6,4.94,5.42,5.42,0,0,0,5.54,5.3H25.69a4,4,0,1,0,.1-8Z" style="fill:#d8d9d8"/><path d="M38.27,1328.64h0a.74.74,0,0,1,.49.92l-3.59,11.7a.74.74,0,0,1-.92.49h0a.74.74,0,0,1-.49-.92l3.59-11.7A.74.74,0,0,1,38.27,1328.64Z" style="fill:#77ccf2"/><path d="M47.57,1328.65h0a.74.74,0,0,1,.49.92l-3.59,11.7a.74.74,0,0,1-.92.49h0a.74.74,0,0,1-.49-.92l3.59-11.7A.74.74,0,0,1,47.57,1328.65Z" style="fill:#77ccf2"/><path d="M29.42,1328.65h0a.74.74,0,0,1,.49.92l-3.59,11.7a.74.74,0,0,1-.92.49h0a.74.74,0,0,1-.49-.92l3.59-11.7A.74.74,0,0,1,29.42,1328.65Z" style="fill:#77ccf2"/><path d="M56.48,1328.65h0a.74.74,0,0,1,.49.92l-3.59,11.7a.74.74,0,0,1-.92.49h0a.74.74,0,0,1-.49-.92l3.59-11.7A.74.74,0,0,1,56.48,1328.65Z" style="fill:#77ccf2"/><path d="M42.89,1328.64h0a.74.74,0,0,1,.49.92l-3.59,11.7a.74.74,0,0,1-.92.49h0a.74.74,0,0,1-.49-.92l3.59-11.7A.74.74,0,0,1,42.89,1328.64Z" style="fill:#fff"/><path d="M52.2,1328.64h0a.74.74,0,0,1,.49.92l-3.59,11.7a.74.74,0,0,1-.92.49h0a.74.74,0,0,1-.49-.92l3.59-11.7A.74.74,0,0,1,52.2,1328.64Z" style="fill:#fff"/><path d="M34,1328.64h0a.74.74,0,0,1,.49.92l-3.59,11.7a.74.74,0,0,1-.92.49h0a.74.74,0,0,1-.49-.92l3.59-11.7A.74.74,0,0,1,34,1328.64Z" style="fill:#fff"/><path d="M61.12,1328.64h0a.74.74,0,0,1,.49.92L58,1341.27a.74.74,0,0,1-.92.49h0a.74.74,0,0,1-.49-.92l3.59-11.7a.74.74,0,0,1,.91-.51h0Z" style="fill:#fff"/><rect y="1237.87" width="70" height="56" style="fill:#fff;fill-opacity:0"/><path d="M55.16,1250.73a11.31,11.31,0,0,0-20.7,3.76,6.6,6.6,0,0,1,5.08,3.22l-.87.49c-1.49-2.62-4.45-2.94-6.48-2.81A6.52,6.52,0,0,0,34.52,1268H54.16a8.67,8.67,0,0,0,.94-17.28Z" style="fill:#919191"/><path d="M27.79,1246.16a7.14,7.14,0,0,0-7.14-5.86,7.32,7.32,0,0,0-5.74,2.73c1.49.25,3.47.93,4.31,2.78l-.91.41c-1-2.3-4.59-2.34-5.13-2.34a5.3,5.3,0,0,0-3.6,4.94,5.42,5.42,0,0,0,5.54,5.3H27.69a4,4,0,0,0,.1-8Z" style="fill:#919191"/><path d="M38.27,1269.26h0a.74.74,0,0,1,.49.92l-3.59,11.7a.74.74,0,0,1-.92.49h0a.74.74,0,0,1-.49-.92l3.59-11.7A.74.74,0,0,1,38.27,1269.26Z" style="fill:#77ccf2"/><path d="M47.57,1269.26h0a.74.74,0,0,1,.49.92l-3.59,11.7a.74.74,0,0,1-.92.49h0a.74.74,0,0,1-.49-.92l3.59-11.7A.74.74,0,0,1,47.57,1269.26Z" style="fill:#77ccf2"/><path d="M29.42,1269.26h0a.74.74,0,0,1,.49.92l-3.59,11.7a.74.74,0,0,1-.92.49h0a.74.74,0,0,1-.49-.92l3.59-11.7A.74.74,0,0,1,29.42,1269.26Z" style="fill:#77ccf2"/><path d="M56.49,1269.26h0a.74.74,0,0,1,.49.92l-3.59,11.7a.74.74,0,0,1-.92.49h0a.74.74,0,0,1-.49-.92l3.59-11.7A.74.74,0,0,1,56.49,1269.26Z" style="fill:#77ccf2"/><path d="M42.89,1269.27h0a.74.74,0,0,1,.49.92l-3.59,11.7a.74.74,0,0,1-.92.49h0a.74.74,0,0,1-.49-.92l3.59-11.7A.74.74,0,0,1,42.89,1269.27Z" style="fill:#fff"/><path d="M52.19,1269.27h0a.74.74,0,0,1,.49.92l-3.59,11.7a.74.74,0,0,1-.92.49h0a.74.74,0,0,1-.49-.92l3.59-11.7A.74.74,0,0,1,52.19,1269.27Z" style="fill:#fff"/><path d="M34,1269.27h0a.74.74,0,0,1,.49.92l-3.59,11.7a.74.74,0,0,1-.92.49h0a.74.74,0,0,1-.49-.92l3.59-11.7A.74.74,0,0,1,34,1269.27Z" style="fill:#fff"/><path d="M61.11,1269.27h0a.74.74,0,0,1,.49.92l-3.6,11.7a.74.74,0,0,1-.92.49h0a.74.74,0,0,1-.49-.92l3.59-11.7a.74.74,0,0,1,.92-.49Z" style="fill:#fff"/><rect y="2018.25" width="70" height="56" style="fill:#fff;fill-opacity:0"/><rect y="1961.16" width="70" height="56" style="fill:#fff;fill-opacity:0"/><path d="M55.16,1982a11.31,11.31,0,0,0-20.7,3.76,6.6,6.6,0,0,1,5.08,3.22l-.87.49c-1.49-2.62-4.45-2.94-6.48-2.81a6.52,6.52,0,0,0,2.33,12.61H54.16A8.67,8.67,0,0,0,55.1,1982Z" style="fill:#919191"/><path d="M27.79,1977.46a7.14,7.14,0,0,0-7.14-5.86,7.32,7.32,0,0,0-5.74,2.73c1.49.25,3.47.93,4.31,2.78l-.91.41c-1-2.3-4.59-2.34-5.13-2.34a5.3,5.3,0,0,0-3.6,4.94,5.42,5.42,0,0,0,5.54,5.3H27.69a4,4,0,0,0,.1-8Z" style="fill:#919191"/><polygon points="42.81 1321.7 47.8 1321.7 46.31 1325.83 48.87 1325.83 41.97 1339.03 43.55 1329.34 41.35 1329.34 42.81 1321.7" style="fill:#feda00"/><polygon points="41.81 1320.7 46.8 1320.7 45.31 1324.83 47.87 1324.83 40.97 1338.03 42.55 1328.34 40.35 1328.34 41.81 1320.7" style="fill:#f47920"/><g style="opacity:0.30000001192092896"><path d="M55.16,1373.72a11.31,11.31,0,0,0-20.7,3.76,6.6,6.6,0,0,1,5.08,3.22l-.87.49c-1.49-2.62-4.45-2.94-6.48-2.81A6.52,6.52,0,0,0,34.52,1391H54.16a8.67,8.67,0,0,0,.94-17.28Z" style="fill:#231f20"/><path d="M27.79,1369.14a7.14,7.14,0,0,0-7.14-5.86,7.32,7.32,0,0,0-5.74,2.73c1.49.25,3.47.93,4.31,2.78l-.91.41c-1-2.3-4.59-2.34-5.13-2.34a5.3,5.3,0,0,0-3.6,4.94,5.42,5.42,0,0,0,5.54,5.3H27.69a4,4,0,1,0,.1-8Z" style="fill:#231f20"/></g><path d="M53.16,1371.72a11.31,11.31,0,0,0-20.7,3.76,6.6,6.6,0,0,1,5.08,3.22l-.87.49c-1.49-2.62-4.45-2.94-6.48-2.81A6.52,6.52,0,0,0,32.52,1389H52.16a8.67,8.67,0,0,0,.94-17.28Z" style="fill:#d8d9d8"/><path d="M25.79,1367.14a7.14,7.14,0,0,0-7.14-5.86,7.32,7.32,0,0,0-5.74,2.73c1.49.25,3.47.93,4.31,2.78l-.91.41c-1-2.3-4.59-2.34-5.13-2.34a5.3,5.3,0,0,0-3.6,4.94,5.42,5.42,0,0,0,5.54,5.3H25.69a4,4,0,1,0,.1-8Z" style="fill:#d8d9d8"/><path d="M38.26,1390.12h0a.74.74,0,0,1,.49.92l-3.59,11.7a.74.74,0,0,1-.92.49h0a.74.74,0,0,1-.49-.92l3.59-11.7A.74.74,0,0,1,38.26,1390.12Z" style="fill:#77ccf2"/><path d="M47.56,1390.12h0a.74.74,0,0,1,.49.92l-3.59,11.7a.74.74,0,0,1-.92.49h0a.74.74,0,0,1-.49-.92l3.59-11.7A.74.74,0,0,1,47.56,1390.12Z" style="fill:#77ccf2"/><path d="M29.41,1390.12h0a.74.74,0,0,1,.49.92l-3.59,11.7a.74.74,0,0,1-.92.49h0a.74.74,0,0,1-.49-.92l3.59-11.7A.74.74,0,0,1,29.41,1390.12Z" style="fill:#77ccf2"/><path d="M56.47,1390.13h0a.74.74,0,0,1,.49.92l-3.59,11.7a.74.74,0,0,1-.92.49h0a.74.74,0,0,1-.49-.92l3.59-11.7A.74.74,0,0,1,56.47,1390.13Z" style="fill:#77ccf2"/><path d="M42.89,1390.12h0a.74.74,0,0,1,.49.92l-3.59,11.7a.74.74,0,0,1-.92.49h0a.74.74,0,0,1-.49-.92l3.59-11.7A.74.74,0,0,1,42.89,1390.12Z" style="fill:#fff"/><path d="M52.19,1390.12h0a.74.74,0,0,1,.49.92l-3.59,11.7a.74.74,0,0,1-.92.49h0a.74.74,0,0,1-.49-.92l3.59-11.7A.74.74,0,0,1,52.19,1390.12Z" style="fill:#fff"/><path d="M34,1390.12h0a.74.74,0,0,1,.49.92l-3.59,11.7a.74.74,0,0,1-.92.49h0a.74.74,0,0,1-.49-.92l3.59-11.7A.74.74,0,0,1,34,1390.12Z" style="fill:#fff"/><path d="M61.11,1390.12h0a.74.74,0,0,1,.49.92L58,1402.75a.74.74,0,0,1-.92.49h0a.74.74,0,0,1-.49-.92l3.59-11.7a.74.74,0,0,1,.92-.5h0Z" style="fill:#fff"/><path d="M38.26,1441.15h0a.74.74,0,0,1,.49.92l-3.59,11.7a.74.74,0,0,1-.92.49h0a.74.74,0,0,1-.49-.92l3.59-11.7A.74.74,0,0,1,38.26,1441.15Z" style="fill:#77ccf2"/><path d="M47.56,1441.15h0a.74.74,0,0,1,.49.92l-3.59,11.7a.74.74,0,0,1-.92.49h0a.74.74,0,0,1-.49-.92l3.59-11.7A.74.74,0,0,1,47.56,1441.15Z" style="fill:#77ccf2"/><path d="M29.41,1441.15h0a.74.74,0,0,1,.49.92l-3.59,11.7a.74.74,0,0,1-.92.49h0a.74.74,0,0,1-.49-.92l3.59-11.7A.74.74,0,0,1,29.41,1441.15Z" style="fill:#77ccf2"/><path d="M56.47,1441.16h0a.74.74,0,0,1,.49.92l-3.59,11.7a.74.74,0,0,1-.92.49h0a.74.74,0,0,1-.49-.92l3.59-11.7A.74.74,0,0,1,56.47,1441.16Z" style="fill:#77ccf2"/><path d="M42.89,1441.16h0a.74.74,0,0,1,.49.92l-3.59,11.7a.74.74,0,0,1-.92.49h0a.74.74,0,0,1-.49-.92l3.59-11.7A.74.74,0,0,1,42.89,1441.16Z" style="fill:#fff"/><path d="M52.19,1441.16h0a.74.74,0,0,1,.49.92l-3.59,11.7a.74.74,0,0,1-.92.49h0a.74.74,0,0,1-.49-.92l3.59-11.7A.74.74,0,0,1,52.19,1441.16Z" style="fill:#fff"/><path d="M34,1441.15h0a.74.74,0,0,1,.49.92l-3.59,11.7a.74.74,0,0,1-.92.49h0a.74.74,0,0,1-.49-.92l3.59-11.7A.74.74,0,0,1,34,1441.15Z" style="fill:#fff"/><path d="M61.11,1441.16h0a.74.74,0,0,1,.49.92l-3.6,11.7a.74.74,0,0,1-.92.49h0a.74.74,0,0,1-.49-.92l3.59-11.7a.74.74,0,0,1,.92-.49Z" style="fill:#fff"/><polygon points="42.81 1383.18 47.8 1383.18 46.31 1387.3 48.87 1387.3 41.97 1400.51 43.55 1390.81 41.35 1390.81 42.81 1383.18" style="fill:#feda00"/><polygon points="41.81 1382.18 46.8 1382.18 45.31 1386.3 47.87 1386.3 40.97 1399.51 42.55 1389.81 40.35 1389.81 41.81 1382.18" style="fill:#f47920"/><g style="opacity:0.30000001192092896"><path d="M55.16,1424.39a11.31,11.31,0,0,0-20.7,3.76,6.6,6.6,0,0,1,5.08,3.22l-.87.49c-1.49-2.62-4.45-2.94-6.48-2.81a6.52,6.52,0,0,0,2.33,12.61H54.16a8.67,8.67,0,0,0,.94-17.28Z" style="fill:#231f20"/><path d="M27.79,1419.81a7.14,7.14,0,0,0-7.14-5.86,7.32,7.32,0,0,0-5.74,2.73c1.49.25,3.47.93,4.31,2.78l-.91.41c-1-2.3-4.59-2.34-5.13-2.34a5.3,5.3,0,0,0-3.6,4.94,5.42,5.42,0,0,0,5.54,5.3H27.69a4,4,0,1,0,.1-8Z" style="fill:#231f20"/></g><path d="M53.16,1422.39a11.31,11.31,0,0,0-20.7,3.76,6.6,6.6,0,0,1,5.08,3.22l-.87.49c-1.49-2.62-4.45-2.94-6.48-2.81a6.52,6.52,0,0,0,2.33,12.61H52.16a8.67,8.67,0,0,0,.94-17.28Z" style="fill:#d8d9d8"/><path d="M25.79,1417.81a7.14,7.14,0,0,0-7.14-5.86,7.32,7.32,0,0,0-5.74,2.73c1.49.25,3.47.93,4.31,2.78l-.91.41c-1-2.3-4.59-2.34-5.13-2.34a5.3,5.3,0,0,0-3.6,4.94,5.42,5.42,0,0,0,5.54,5.3H25.69a4,4,0,1,0,.1-8Z" style="fill:#d8d9d8"/><polygon points="42.81 1432.85 47.8 1432.85 46.31 1436.97 48.87 1436.97 41.97 1450.17 43.55 1440.48 41.35 1440.48 42.81 1432.85" style="fill:#feda00"/><polygon points="41.81 1431.85 46.8 1431.85 45.31 1435.97 47.87 1435.97 40.97 1449.17 42.55 1439.48 40.35 1439.48 41.81 1431.85" style="fill:#f47920"/><rect y="1689.35" width="70" height="56" style="fill:#fff;fill-opacity:0"/><rect y="1633.64" width="70" height="56" style="fill:#fff;fill-opacity:0"/><circle cx="39.91" cy="2033.06" r="12.51" style="fill:#efeb60;opacity:0.5099999904632568;isolation:isolate"/><circle cx="39.91" cy="2033.06" r="9.54" style="fill:#f6b31a;stroke:#feea02;stroke-miterlimit:10"/><circle cx="43.15" cy="1648.2" r="15.24" style="fill:#efeb60;opacity:0.5099999904632568;isolation:isolate"/><circle cx="43.15" cy="1648.2" r="11.63" style="fill:#f6b31a;stroke:#feea02;stroke-miterlimit:10"/><circle cx="44.41" cy="1708.66" r="17.5" style="fill:#43444d;opacity:0.25;isolation:isolate"/><path d="M52.3,1710.95a.68.68,0,0,0,.68-.68h0v-2.32a.68.68,0,1,0-1.36,0h0v2.32a.68.68,0,0,0,.67.69h0Z" style="fill:#fff"/><path d="M54.14,1709.1a.68.68,0,0,0-.68-.68H51.14a.68.68,0,0,0,0,1.36h2.33A.68.68,0,0,0,54.14,1709.1Z" style="fill:#fff"/><path d="M30.32,1699.51a.68.68,0,0,0,.68-.68h0v-2.32a.68.68,0,1,0-1.36,0v2.32a.68.68,0,0,0,.67.69h0Z" style="fill:#fff"/><path d="M32.17,1697.67a.68.68,0,0,0-.68-.68H29.16a.68.68,0,0,0,0,1.36h2.33a.68.68,0,0,0,.69-.67h0Z" style="fill:#fff"/><path d="M49.57,1697.67a.68.68,0,0,0,.68-.68h0v-2.32a.68.68,0,1,0-1.36,0h0V1697A.68.68,0,0,0,49.57,1697.67Z" style="fill:#fff"/><path d="M51.41,1695.82a.68.68,0,0,0-.68-.68H48.4a.68.68,0,0,0,0,1.36h2.33a.68.68,0,0,0,.69-.67h0Z" style="fill:#fff"/><path d="M45.33,1696.21a11.88,11.88,0,0,1,4.15-.22,11.9,11.9,0,0,0,5.12,21.76,11.91,11.91,0,1,1-9.27-21.54Z" style="fill:#626472;opacity:0.18000000715255737;isolation:isolate"/><path d="M41.27,1697.39a11.77,11.77,0,0,1,4.11-.22,11.78,11.78,0,0,0,5.07,21.56,11.8,11.8,0,1,1-9.18-21.34Z" style="fill:#fdfce9"/><g style="opacity:0.30000001192092896"><path d="M55.16,1654.52a11.31,11.31,0,0,0-20.7,3.76,6.6,6.6,0,0,1,5.08,3.22l-.87.49c-1.49-2.62-4.45-2.94-6.48-2.81a6.52,6.52,0,0,0,2.33,12.61H54.16a8.67,8.67,0,0,0,.94-17.28Z" style="fill:#231f20"/><path d="M27.79,1649.94a7.14,7.14,0,0,0-7.14-5.86,7.32,7.32,0,0,0-5.74,2.73c1.49.25,3.47.93,4.31,2.78l-.91.41c-1-2.3-4.59-2.34-5.13-2.34a5.3,5.3,0,0,0-3.6,4.94,5.42,5.42,0,0,0,5.54,5.3H27.69a4,4,0,1,0,.1-8Z" style="fill:#231f20"/></g><path d="M53.16,1652.51a11.31,11.31,0,0,0-20.7,3.76,6.6,6.6,0,0,1,5.08,3.22l-.87.49c-1.49-2.62-4.45-2.94-6.48-2.81a6.52,6.52,0,0,0,2.33,12.61H52.16a8.67,8.67,0,0,0,.94-17.28Z" style="fill:#d8d9d8"/><path d="M25.79,1647.94a7.14,7.14,0,0,0-7.14-5.86,7.32,7.32,0,0,0-5.74,2.73c1.49.25,3.47.93,4.31,2.78l-.91.41c-1-2.3-4.59-2.34-5.13-2.34a5.3,5.3,0,0,0-3.6,4.94,5.42,5.42,0,0,0,5.54,5.3H25.69a4,4,0,1,0,.1-8Z" style="fill:#d8d9d8"/><path d="M38.24,1671.92h0a.74.74,0,0,1,.49.92l-3.59,11.7a.74.74,0,0,1-.92.49h0a.74.74,0,0,1-.49-.92l3.59-11.7A.74.74,0,0,1,38.24,1671.92Z" style="fill:#77ccf2"/><path d="M47.54,1671.92h0a.74.74,0,0,1,.49.92l-3.59,11.7a.74.74,0,0,1-.92.49h0a.74.74,0,0,1-.49-.92l3.59-11.7A.74.74,0,0,1,47.54,1671.92Z" style="fill:#77ccf2"/><path d="M29.39,1671.92h0a.74.74,0,0,1,.49.92l-3.59,11.7a.74.74,0,0,1-.92.49h0a.74.74,0,0,1-.49-.92l3.59-11.7A.74.74,0,0,1,29.39,1671.92Z" style="fill:#77ccf2"/><path d="M56.46,1671.92h0a.74.74,0,0,1,.49.92l-3.59,11.7a.74.74,0,0,1-.92.49h0a.74.74,0,0,1-.49-.92l3.59-11.7A.74.74,0,0,1,56.46,1671.92Z" style="fill:#77ccf2"/><path d="M42.86,1671.91h0a.74.74,0,0,1,.49.92l-3.59,11.7a.74.74,0,0,1-.92.49h0a.74.74,0,0,1-.49-.92l3.59-11.7A.74.74,0,0,1,42.86,1671.91Z" style="fill:#fff"/><path d="M52.16,1671.91h0a.74.74,0,0,1,.49.92l-3.59,11.7a.74.74,0,0,1-.92.49h0a.74.74,0,0,1-.49-.92l3.59-11.7A.74.74,0,0,1,52.16,1671.91Z" style="fill:#fff"/><path d="M34,1671.91h0a.74.74,0,0,1,.49.92l-3.59,11.7a.74.74,0,0,1-.92.49h0a.74.74,0,0,1-.49-.92l3.59-11.7A.74.74,0,0,1,34,1671.91Z" style="fill:#fff"/><path d="M61.08,1671.92h0a.74.74,0,0,1,.49.92L58,1684.55a.74.74,0,0,1-.92.49h0a.74.74,0,0,1-.49-.92l3.59-11.7A.74.74,0,0,1,61.08,1671.92Z" style="fill:#fff"/><g style="opacity:0.30000001192092896"><path d="M55.16,1713.23a11.31,11.31,0,0,0-20.7,3.76,6.6,6.6,0,0,1,5.08,3.22l-.87.49c-1.49-2.62-4.45-2.94-6.48-2.81a6.52,6.52,0,0,0,2.33,12.61H54.16a8.67,8.67,0,0,0,.94-17.28Z" style="fill:#231f20"/><path d="M27.79,1708.65a7.14,7.14,0,0,0-7.14-5.86,7.32,7.32,0,0,0-5.74,2.73c1.49.25,3.47.93,4.31,2.78l-.91.41c-1-2.3-4.59-2.34-5.13-2.34a5.3,5.3,0,0,0-3.6,4.94,5.42,5.42,0,0,0,5.54,5.3H27.69a4,4,0,0,0,.1-8Z" style="fill:#231f20"/></g><path d="M53.16,1711.22a11.31,11.31,0,0,0-20.7,3.76,6.6,6.6,0,0,1,5.08,3.22l-.87.49c-1.49-2.62-4.45-2.94-6.48-2.81a6.52,6.52,0,0,0,2.33,12.61H52.16a8.67,8.67,0,0,0,.94-17.28Z" style="fill:#d8d9d8"/><path d="M25.79,1706.65a7.14,7.14,0,0,0-7.14-5.86,7.32,7.32,0,0,0-5.74,2.73c1.49.25,3.47.93,4.31,2.78l-.91.41c-1-2.3-4.59-2.34-5.13-2.34a5.3,5.3,0,0,0-3.6,4.94,5.42,5.42,0,0,0,5.54,5.3H25.69a4,4,0,0,0,.1-8Z" style="fill:#d8d9d8"/><path d="M38.24,1730.62h0a.74.74,0,0,1,.49.92l-3.59,11.7a.74.74,0,0,1-.92.49h0a.74.74,0,0,1-.49-.92l3.59-11.7A.74.74,0,0,1,38.24,1730.62Z" style="fill:#77ccf2"/><path d="M47.53,1730.62h0a.74.74,0,0,1,.49.92l-3.59,11.7a.74.74,0,0,1-.92.49h0a.74.74,0,0,1-.49-.92l3.59-11.7A.74.74,0,0,1,47.53,1730.62Z" style="fill:#77ccf2"/><path d="M29.39,1730.62h0a.74.74,0,0,1,.49.92l-3.59,11.7a.74.74,0,0,1-.92.49h0a.74.74,0,0,1-.49-.92l3.59-11.7A.74.74,0,0,1,29.39,1730.62Z" style="fill:#77ccf2"/><path d="M56.45,1730.63h0a.74.74,0,0,1,.49.92l-3.59,11.7a.74.74,0,0,1-.92.49h0a.74.74,0,0,1-.49-.92l3.59-11.7A.74.74,0,0,1,56.45,1730.63Z" style="fill:#77ccf2"/><path d="M42.86,1730.63h0a.74.74,0,0,1,.49.92l-3.59,11.7a.74.74,0,0,1-.92.49h0a.74.74,0,0,1-.49-.92l3.59-11.7A.74.74,0,0,1,42.86,1730.63Z" style="fill:#fff"/><path d="M52.16,1730.62h0a.74.74,0,0,1,.49.92l-3.59,11.7a.74.74,0,0,1-.92.49h0a.74.74,0,0,1-.49-.92l3.59-11.7A.74.74,0,0,1,52.16,1730.62Z" style="fill:#fff"/><path d="M34,1730.62h0a.74.74,0,0,1,.49.92l-3.59,11.7a.74.74,0,0,1-.92.49h0a.74.74,0,0,1-.49-.92l3.59-11.7A.74.74,0,0,1,34,1730.62Z" style="fill:#fff"/><path d="M61.08,1730.63h0a.74.74,0,0,1,.49.92L58,1743.25a.74.74,0,0,1-.92.49h0a.74.74,0,0,1-.49-.92l3.59-11.7A.74.74,0,0,1,61.08,1730.63Z" style="fill:#fff"/><path d="M38.24,1730.11h0a.74.74,0,0,1,.49.92l-3.59,11.7a.74.74,0,0,1-.92.49h0a.74.74,0,0,1-.49-.92l3.59-11.7A.74.74,0,0,1,38.24,1730.11Z" style="fill:#77ccf2"/><path d="M47.53,1730.1h0a.74.74,0,0,1,.49.92l-3.59,11.7a.74.74,0,0,1-.92.49h0a.74.74,0,0,1-.49-.92l3.59-11.7A.74.74,0,0,1,47.53,1730.1Z" style="fill:#77ccf2"/><path d="M29.39,1730.1h0a.74.74,0,0,1,.49.92l-3.59,11.7a.74.74,0,0,1-.92.49h0a.74.74,0,0,1-.49-.92l3.59-11.7A.74.74,0,0,1,29.39,1730.1Z" style="fill:#77ccf2"/><path d="M56.45,1730.1h0a.74.74,0,0,1,.49.92l-3.59,11.7a.74.74,0,0,1-.92.49h0a.74.74,0,0,1-.49-.92l3.59-11.7A.74.74,0,0,1,56.45,1730.1Z" style="fill:#77ccf2"/><path d="M42.86,1730.1h0a.74.74,0,0,1,.49.92l-3.59,11.7a.74.74,0,0,1-.92.49h0a.74.74,0,0,1-.49-.92l3.59-11.7A.74.74,0,0,1,42.86,1730.1Z" style="fill:#fff"/><path d="M52.16,1730.11h0a.74.74,0,0,1,.49.92l-3.59,11.7a.74.74,0,0,1-.92.49h0a.74.74,0,0,1-.49-.92l3.59-11.7A.74.74,0,0,1,52.16,1730.11Z" style="fill:#fff"/><path d="M34,1730.11h0a.74.74,0,0,1,.49.92l-3.59,11.7a.74.74,0,0,1-.92.49h0a.74.74,0,0,1-.49-.92l3.59-11.7A.74.74,0,0,1,34,1730.11Z" style="fill:#fff"/><path d="M61.08,1730.11h0a.74.74,0,0,1,.49.92L58,1742.74a.74.74,0,0,1-.92.49h0a.74.74,0,0,1-.49-.92l3.59-11.7A.74.74,0,0,1,61.08,1730.11Z" style="fill:#fff"/><circle cx="33.64" cy="1504.42" r="7.7" style="fill:#fff;opacity:0.800000011920929;isolation:isolate"/><path d="M39.2,1506.84l-4.2-2.42,4.2-2.42a.68.68,0,0,0,.25-.92h0a.68.68,0,0,0-.92-.25l-4.2,2.42v-4.85a.68.68,0,0,0-1.35,0v4.85l-4.2-2.42a.68.68,0,0,0-.8,1.1h0l.12.07,4.2,2.42-4.2,2.42a.68.68,0,1,0,.56,1.24l.12-.07,4.2-2.42v4.85a.68.68,0,1,0,1.35,0v-4.85l4.2,2.42a.68.68,0,0,0,.92-.25h0A.68.68,0,0,0,39.2,1506.84Z" style="fill:#77ccf2"/><g style="opacity:0.30000001192092896"><path d="M55.16,1549.82a11.31,11.31,0,0,0-20.7,3.76,6.6,6.6,0,0,1,5.08,3.22l-.87.49c-1.49-2.62-4.45-2.94-6.48-2.81a6.52,6.52,0,0,0,2.33,12.61H54.16a8.67,8.67,0,0,0,.94-17.28Z" style="fill:#231f20"/><path d="M27.79,1545.25a7.14,7.14,0,0,0-7.14-5.86,7.32,7.32,0,0,0-5.74,2.73c1.49.25,3.47.93,4.31,2.78l-.91.41c-1-2.3-4.59-2.34-5.13-2.34a5.3,5.3,0,0,0-3.6,4.94,5.42,5.42,0,0,0,5.54,5.3H27.69a4,4,0,0,0,.1-8Z" style="fill:#231f20"/></g><path d="M53.16,1547.82a11.31,11.31,0,0,0-20.7,3.76,6.6,6.6,0,0,1,5.08,3.22l-.87.49c-1.49-2.62-4.45-2.94-6.48-2.81a6.52,6.52,0,0,0,2.33,12.61H52.16a8.67,8.67,0,0,0,.94-17.28Z" style="fill:#d8d9d8"/><path d="M25.79,1543.24a7.14,7.14,0,0,0-7.14-5.86,7.32,7.32,0,0,0-5.74,2.73c1.49.25,3.47.93,4.31,2.78l-.91.41c-1-2.3-4.59-2.34-5.13-2.34a5.3,5.3,0,0,0-3.6,4.94,5.42,5.42,0,0,0,5.54,5.3H25.69a4,4,0,0,0,.1-8Z" style="fill:#d8d9d8"/><circle cx="34" cy="1566.84" r="7.41" style="fill:#fff;opacity:0.800000011920929;isolation:isolate"/><path d="M39.34,1569.17l-4-2.33,4-2.33a.65.65,0,0,0,.24-.89h0a.65.65,0,0,0-.89-.24h0l-4,2.33V1561a.65.65,0,0,0-1.3,0h0v4.67l-4-2.33a.65.65,0,1,0-.65,1.13l4,2.33-4,2.33a.65.65,0,1,0,.65,1.13l4-2.33v4.67a.65.65,0,0,0,1.3,0h0V1568l4,2.33a.65.65,0,0,0,.89-.24h0a.65.65,0,0,0-.2-.9h0Z" style="fill:#77ccf2"/><circle cx="33.68" cy="1674.17" r="7.69" style="fill:#fff;opacity:0.800000011920929;isolation:isolate"/><path d="M39.23,1676.59,35,1674.17l4.19-2.42a.68.68,0,0,0,.25-.92h0a.68.68,0,0,0-.92-.25L34.36,1673v-4.84a.68.68,0,1,0-1.35,0V1673l-4.19-2.42a.68.68,0,0,0-.68,1.17l4.19,2.42-4.19,2.42a.68.68,0,1,0,.56,1.24l.12-.07,4.19-2.42v4.84a.68.68,0,1,0,1.35,0v-4.84l4.19,2.42a.68.68,0,0,0,.92-.25h0A.68.68,0,0,0,39.23,1676.59Z" style="fill:#77ccf2"/><circle cx="54.09" cy="1674.17" r="7.69" style="fill:#fff;opacity:0.800000011920929;isolation:isolate"/><path d="M59.64,1676.59l-4.19-2.42,4.19-2.42a.68.68,0,0,0,.25-.92h0a.68.68,0,0,0-.92-.25l-4.2,2.42v-4.84a.68.68,0,1,0-1.35,0V1673l-4.19-2.42a.68.68,0,0,0-.68,1.17l4.19,2.42-4.19,2.42a.68.68,0,1,0,.56,1.24l.12-.07,4.19-2.42v4.84a.68.68,0,1,0,1.35,0v-4.84l4.19,2.42a.68.68,0,0,0,.92-.25h0A.68.68,0,0,0,59.64,1676.59Z" style="fill:#77ccf2"/><circle cx="33.68" cy="1728.36" r="7.69" style="fill:#fff;opacity:0.800000011920929;isolation:isolate"/><path d="M39.23,1730.78,35,1728.36l4.19-2.42a.68.68,0,0,0,.25-.92h0a.68.68,0,0,0-.92-.25l-4.19,2.42v-4.84a.68.68,0,0,0-1.35,0v4.84l-4.19-2.42a.68.68,0,0,0-.8,1.1l.12.07,4.19,2.42-4.19,2.42a.68.68,0,1,0,.56,1.24l.12-.07,4.19-2.42v4.84a.68.68,0,1,0,1.35,0v-4.84l4.19,2.42a.68.68,0,0,0,.92-.25h0A.68.68,0,0,0,39.23,1730.78Z" style="fill:#77ccf2"/><circle cx="54.09" cy="1728.36" r="7.69" style="fill:#fff;opacity:0.800000011920929;isolation:isolate"/><path d="M59.64,1730.78l-4.19-2.42,4.19-2.42a.68.68,0,0,0,.25-.92h0a.68.68,0,0,0-.92-.25l-4.19,2.42v-4.84a.68.68,0,0,0-1.35,0v4.84l-4.19-2.42a.68.68,0,0,0-.8,1.1l.12.07,4.19,2.42-4.19,2.42a.68.68,0,1,0,.56,1.24l.12-.07,4.19-2.42v4.84a.68.68,0,1,0,1.35,0v-4.84L59,1732a.68.68,0,0,0,.92-.25h0a.68.68,0,0,0-.22-.94h0Z" style="fill:#77ccf2"/><rect y="1746.39" width="70" height="56" style="fill:#fff;fill-opacity:0"/><g style="opacity:0.30000001192092896"><path d="M55.16,1761.26a11.31,11.31,0,0,0-20.7,3.76,6.6,6.6,0,0,1,5.08,3.22l-.87.49c-1.49-2.62-4.45-2.94-6.48-2.81a6.52,6.52,0,0,0,2.33,12.61H54.16a8.67,8.67,0,0,0,.94-17.28Z" style="fill:#231f20"/><path d="M27.79,1756.68a7.14,7.14,0,0,0-7.14-5.86,7.32,7.32,0,0,0-5.74,2.73c1.49.25,3.47.93,4.31,2.78l-.91.41c-1-2.3-4.59-2.34-5.13-2.34a5.3,5.3,0,0,0-3.6,4.94,5.42,5.42,0,0,0,5.54,5.3H27.69a4,4,0,0,0,.1-8Z" style="fill:#231f20"/></g><path d="M53.16,1759.25a11.31,11.31,0,0,0-20.7,3.76,6.6,6.6,0,0,1,5.08,3.22l-.87.49c-1.49-2.62-4.45-2.94-6.48-2.81a6.52,6.52,0,0,0,2.33,12.61H52.16a8.67,8.67,0,0,0,.94-17.28Z" style="fill:#d8d9d8"/><path d="M25.79,1754.68a7.14,7.14,0,0,0-7.14-5.86,7.32,7.32,0,0,0-5.74,2.73c1.49.25,3.47.93,4.31,2.78l-.91.41c-1-2.3-4.59-2.34-5.13-2.34a5.3,5.3,0,0,0-3.6,4.94,5.42,5.42,0,0,0,5.54,5.3H25.69a4,4,0,1,0,.1-8Z" style="fill:#d8d9d8"/><path d="M38.24,1778.65h0a.74.74,0,0,1,.49.92l-3.59,11.7a.74.74,0,0,1-.92.49h0a.74.74,0,0,1-.49-.92l3.59-11.7A.74.74,0,0,1,38.24,1778.65Z" style="fill:#77ccf2"/><path d="M47.53,1778.65h0a.74.74,0,0,1,.49.92l-3.59,11.7a.74.74,0,0,1-.92.49h0a.74.74,0,0,1-.49-.92l3.59-11.7A.74.74,0,0,1,47.53,1778.65Z" style="fill:#77ccf2"/><path d="M29.38,1778.65h0a.74.74,0,0,1,.49.92l-3.59,11.7a.74.74,0,0,1-.92.49h0a.74.74,0,0,1-.49-.92l3.59-11.7A.74.74,0,0,1,29.38,1778.65Z" style="fill:#77ccf2"/><path d="M56.45,1778.65h0a.74.74,0,0,1,.49.92l-3.59,11.7a.74.74,0,0,1-.92.49h0a.74.74,0,0,1-.49-.92l3.59-11.7A.74.74,0,0,1,56.45,1778.65Z" style="fill:#77ccf2"/><path d="M42.85,1778.65h0a.74.74,0,0,1,.49.92l-3.59,11.7a.74.74,0,0,1-.92.49h0a.74.74,0,0,1-.49-.92l3.59-11.7A.74.74,0,0,1,42.85,1778.65Z" style="fill:#fff"/><path d="M52.15,1778.66h0a.74.74,0,0,1,.49.92l-3.59,11.7a.74.74,0,0,1-.92.49h0a.74.74,0,0,1-.49-.92l3.59-11.7A.74.74,0,0,1,52.15,1778.66Z" style="fill:#fff"/><path d="M34,1778.65h0a.74.74,0,0,1,.49.92l-3.59,11.7a.74.74,0,0,1-.92.49h0a.74.74,0,0,1-.49-.92l3.59-11.7A.74.74,0,0,1,34,1778.65Z" style="fill:#fff"/><path d="M61.08,1778.66h0a.74.74,0,0,1,.49.92L58,1791.28a.74.74,0,0,1-.92.49h0a.74.74,0,0,1-.49-.92l3.59-11.7A.74.74,0,0,1,61.08,1778.66Z" style="fill:#fff"/><circle cx="33.68" cy="1779.91" r="7.69" style="fill:#fff;opacity:0.800000011920929;isolation:isolate"/><path d="M39.23,1782.33,35,1779.91l4.19-2.42a.68.68,0,0,0,.25-.92h0a.68.68,0,0,0-.92-.25l-4.19,2.42v-4.84a.68.68,0,1,0-1.35,0v4.84l-4.19-2.42a.68.68,0,0,0-.68,1.17l4.19,2.42-4.19,2.42a.68.68,0,1,0,.56,1.24l.12-.07,4.19-2.42v4.84a.68.68,0,1,0,1.35,0v-4.84l4.19,2.42a.68.68,0,0,0,.92-.25h0A.68.68,0,0,0,39.23,1782.33Z" style="fill:#77ccf2"/><circle cx="54.09" cy="1779.91" r="7.69" style="fill:#fff;opacity:0.800000011920929;isolation:isolate"/><path d="M59.64,1782.33l-4.19-2.42,4.19-2.42a.68.68,0,0,0,.25-.92h0a.68.68,0,0,0-.92-.25l-4.19,2.42v-4.84a.68.68,0,1,0-1.35,0v4.84l-4.19-2.42a.68.68,0,0,0-.68,1.17l4.19,2.42-4.19,2.42a.68.68,0,1,0,.56,1.24l.12-.07,4.19-2.42v4.84a.68.68,0,1,0,1.35,0v-4.84L59,1783.5a.68.68,0,0,0,.92-.25h0a.68.68,0,0,0-.28-.92Z" style="fill:#77ccf2"/><rect y="1906.97" width="70" height="56" style="fill:#fff;fill-opacity:0"/><rect y="1858.46" width="70" height="56" style="fill:#fff;fill-opacity:0"/><rect y="1802.75" width="70" height="56" style="fill:#fff;fill-opacity:0"/><circle cx="43.15" cy="1817.31" r="15.24" style="fill:#efeb60;opacity:0.5099999904632568;isolation:isolate"/><circle cx="43.15" cy="1817.31" r="11.63" style="fill:#f6b31a;stroke:#feea02;stroke-miterlimit:10"/><circle cx="44.41" cy="1877.77" r="17.5" style="fill:#43444d;opacity:0.25;isolation:isolate"/><path d="M52.3,1880.05a.68.68,0,0,0,.68-.68h0V1877a.68.68,0,1,0-1.36,0h0v2.32a.68.68,0,0,0,.63.73h.05Z" style="fill:#fff"/><path d="M54.14,1878.21a.68.68,0,0,0-.68-.68H51.14a.68.68,0,0,0,0,1.36h2.33A.68.68,0,0,0,54.14,1878.21Z" style="fill:#fff"/><path d="M30.32,1868.62a.68.68,0,0,0,.68-.68h0v-2.32a.68.68,0,1,0-1.36,0v2.32a.68.68,0,0,0,.67.69h0Z" style="fill:#fff"/><path d="M32.17,1866.77a.68.68,0,0,0-.68-.68H29.16a.68.68,0,0,0,0,1.36h2.33a.68.68,0,0,0,.69-.67h0Z" style="fill:#fff"/><path d="M49.57,1866.77a.68.68,0,0,0,.68-.68h0v-2.32a.68.68,0,1,0-1.36,0v2.32a.68.68,0,0,0,.67.69h0Z" style="fill:#fff"/><path d="M51.41,1864.93a.68.68,0,0,0-.68-.68H48.4a.68.68,0,0,0,0,1.36h2.33a.68.68,0,0,0,.69-.67h0Z" style="fill:#fff"/><path d="M45.33,1865.31a11.88,11.88,0,0,1,4.15-.22,11.9,11.9,0,0,0,5.12,21.76,11.91,11.91,0,1,1-9.27-21.54Z" style="fill:#626472;opacity:0.18000000715255737;isolation:isolate"/><path d="M41.27,1866.5a11.77,11.77,0,0,1,4.11-.22,11.78,11.78,0,0,0,5.07,21.56,11.8,11.8,0,1,1-9.18-21.34Z" style="fill:#fdfce9"/><g style="opacity:0.30000001192092896"><path d="M55.16,1823.62a11.31,11.31,0,0,0-20.7,3.76,6.6,6.6,0,0,1,5.08,3.22l-.87.49c-1.49-2.62-4.45-2.94-6.48-2.81a6.52,6.52,0,0,0,2.33,12.61H54.16a8.67,8.67,0,0,0,.94-17.28Z" style="fill:#231f20"/><path d="M27.79,1819a7.14,7.14,0,0,0-7.14-5.86,7.32,7.32,0,0,0-5.74,2.73c1.49.25,3.47.93,4.31,2.78l-.91.41c-1-2.3-4.59-2.34-5.13-2.34a5.3,5.3,0,0,0-3.6,4.94,5.42,5.42,0,0,0,5.54,5.3H27.69a4,4,0,1,0,.1-8Z" style="fill:#231f20"/></g><path d="M53.16,1821.62a11.31,11.31,0,0,0-20.7,3.76,6.6,6.6,0,0,1,5.08,3.22l-.87.49c-1.49-2.62-4.45-2.94-6.48-2.81a6.52,6.52,0,0,0,2.33,12.61H52.16a8.67,8.67,0,0,0,.94-17.28Z" style="fill:#d8d9d8"/><path d="M25.79,1817a7.14,7.14,0,0,0-7.14-5.86,7.32,7.32,0,0,0-5.74,2.73c1.49.25,3.47.93,4.31,2.78l-.91.41c-1-2.3-4.59-2.34-5.13-2.34a5.3,5.3,0,0,0-3.6,4.94,5.42,5.42,0,0,0,5.54,5.3H25.69a4,4,0,1,0,.1-8Z" style="fill:#d8d9d8"/><g style="opacity:0.30000001192092896"><path d="M55.16,1883.82a11.31,11.31,0,0,0-20.7,3.76,6.6,6.6,0,0,1,5.08,3.22l-.87.49c-1.49-2.62-4.45-2.94-6.48-2.81a6.52,6.52,0,0,0,2.33,12.61H54.16a8.67,8.67,0,0,0,.94-17.28Z" style="fill:#231f20"/><path d="M27.79,1879.24a7.14,7.14,0,0,0-7.14-5.86,7.32,7.32,0,0,0-5.74,2.73c1.49.25,3.47.93,4.31,2.78l-.91.41c-1-2.3-4.59-2.34-5.13-2.34a5.3,5.3,0,0,0-3.6,4.94,5.42,5.42,0,0,0,5.54,5.3H27.69a4,4,0,1,0,.1-8Z" style="fill:#231f20"/></g><path d="M53.16,1881.81a11.31,11.31,0,0,0-20.7,3.76,6.6,6.6,0,0,1,5.08,3.22l-.87.49c-1.49-2.62-4.45-2.94-6.48-2.81a6.52,6.52,0,0,0,2.33,12.61H52.16a8.67,8.67,0,0,0,.94-17.28Z" style="fill:#d8d9d8"/><path d="M25.79,1877.24a7.14,7.14,0,0,0-7.14-5.86,7.32,7.32,0,0,0-5.74,2.73c1.49.25,3.47.93,4.31,2.78l-.91.41c-1-2.3-4.59-2.34-5.13-2.34a5.3,5.3,0,0,0-3.6,4.94,5.42,5.42,0,0,0,5.54,5.3H25.69a4,4,0,1,0,.1-8Z" style="fill:#d8d9d8"/><circle cx="33.68" cy="1843.27" r="7.69" style="fill:#fff;opacity:0.800000011920929;isolation:isolate"/><path d="M39.23,1845.69,35,1843.27l4.19-2.42a.68.68,0,0,0,.25-.92h0a.68.68,0,0,0-.92-.25l-4.19,2.42v-4.84a.68.68,0,1,0-1.35,0v4.84l-4.19-2.42a.68.68,0,0,0-.68,1.17l4.19,2.42-4.19,2.42a.68.68,0,1,0,.56,1.24l.12-.07,4.19-2.42v4.84a.68.68,0,1,0,1.35,0v-4.84l4.19,2.42a.68.68,0,0,0,.92-.25h0A.68.68,0,0,0,39.23,1845.69Z" style="fill:#77ccf2"/><circle cx="54.09" cy="1843.27" r="7.69" style="fill:#fff;opacity:0.800000011920929;isolation:isolate"/><path d="M59.64,1845.69l-4.19-2.42,4.19-2.42a.68.68,0,0,0,.25-.92h0a.68.68,0,0,0-.92-.25l-4.19,2.42v-4.84a.68.68,0,1,0-1.35,0v4.84l-4.19-2.42a.68.68,0,0,0-.68,1.17l4.19,2.42-4.19,2.42a.68.68,0,1,0,.56,1.24l.12-.07,4.19-2.42v4.84a.68.68,0,1,0,1.35,0v-4.84l4.19,2.42a.68.68,0,0,0,.92-.25h0A.68.68,0,0,0,59.64,1845.69Z" style="fill:#77ccf2"/><circle cx="33.68" cy="1900.98" r="7.69" style="fill:#fff;opacity:0.800000011920929;isolation:isolate"/><path d="M39.23,1903.4,35,1901l4.19-2.42a.68.68,0,0,0,.25-.92h0a.68.68,0,0,0-.92-.25l-4.19,2.42V1895a.68.68,0,1,0-1.35,0v4.84l-4.19-2.42a.68.68,0,0,0-.68,1.17L32.3,1901l-4.19,2.42a.68.68,0,1,0,.56,1.24l.12-.07,4.19-2.42V1907a.68.68,0,1,0,1.35,0v-4.84l4.19,2.42a.68.68,0,0,0,.92-.25h0A.68.68,0,0,0,39.23,1903.4Z" style="fill:#77ccf2"/><circle cx="54.09" cy="1900.98" r="7.69" style="fill:#fff;opacity:0.800000011920929;isolation:isolate"/><path d="M59.64,1903.4l-4.2-2.4,4.19-2.42a.68.68,0,0,0,.25-.92h0a.68.68,0,0,0-.92-.25l-4.19,2.42V1895a.68.68,0,1,0-1.35,0v4.84l-4.19-2.42a.68.68,0,0,0-.68,1.17l4.19,2.42-4.19,2.42a.68.68,0,1,0,.56,1.24l.12-.07,4.19-2.42V1907a.68.68,0,1,0,1.35,0v-4.84l4.19,2.42a.68.68,0,0,0,.92-.25h0A.68.68,0,0,0,59.64,1903.4Z" style="fill:#77ccf2"/><rect y="1915.49" width="70" height="56" style="fill:#fff;fill-opacity:0"/><g style="opacity:0.30000001192092896"><path d="M55.16,1930.36a11.31,11.31,0,0,0-20.7,3.76,6.6,6.6,0,0,1,5.08,3.22l-.87.49c-1.49-2.62-4.45-2.94-6.48-2.81a6.52,6.52,0,0,0,2.33,12.61H54.16a8.67,8.67,0,0,0,.94-17.28Z" style="fill:#231f20"/><path d="M27.79,1925.79a7.14,7.14,0,0,0-7.14-5.86,7.32,7.32,0,0,0-5.74,2.73c1.49.25,3.47.93,4.31,2.78l-.91.41c-1-2.3-4.59-2.34-5.13-2.34a5.3,5.3,0,0,0-3.6,4.94,5.42,5.42,0,0,0,5.54,5.3H27.69a4,4,0,1,0,.1-8Z" style="fill:#231f20"/></g><path d="M53.16,1928.36a11.31,11.31,0,0,0-20.7,3.76,6.6,6.6,0,0,1,5.08,3.22l-.87.49c-1.49-2.62-4.45-2.94-6.48-2.81a6.52,6.52,0,0,0,2.33,12.61H52.16a8.67,8.67,0,0,0,.94-17.28Z" style="fill:#d8d9d8"/><path d="M25.79,1923.78a7.14,7.14,0,0,0-7.14-5.86,7.32,7.32,0,0,0-5.74,2.73c1.49.25,3.47.93,4.31,2.78l-.91.41c-1-2.3-4.59-2.34-5.13-2.34a5.3,5.3,0,0,0-3.6,4.94,5.42,5.42,0,0,0,5.54,5.3H25.69a4,4,0,1,0,.1-8Z" style="fill:#d8d9d8"/><circle cx="33.68" cy="1949.01" r="7.69" style="fill:#fff;opacity:0.800000011920929;isolation:isolate"/><path d="M39.23,1951.43,35,1949l4.19-2.42a.68.68,0,0,0,.25-.92h0a.68.68,0,0,0-.92-.25l-4.19,2.42V1943a.68.68,0,1,0-1.35,0v4.84l-4.19-2.42a.68.68,0,0,0-.68,1.17L32.3,1949l-4.19,2.42a.68.68,0,1,0,.56,1.24l.12-.07,4.19-2.42V1955a.68.68,0,1,0,1.35,0v-4.84l4.19,2.42a.68.68,0,0,0,.92-.25h0A.68.68,0,0,0,39.23,1951.43Z" style="fill:#77ccf2"/><circle cx="54.09" cy="1949.01" r="7.69" style="fill:#fff;opacity:0.800000011920929;isolation:isolate"/><path d="M59.64,1951.43l-4.2-2.43,4.19-2.42a.68.68,0,0,0,.25-.92h0a.68.68,0,0,0-.92-.25l-4.19,2.42V1943a.68.68,0,1,0-1.35,0v4.84l-4.19-2.42a.68.68,0,0,0-.68,1.17l4.19,2.42-4.19,2.42a.68.68,0,1,0,.56,1.24l.12-.07,4.19-2.42V1955a.68.68,0,1,0,1.35,0v-4.84L59,1952.6a.68.68,0,0,0,.92-.25h0A.68.68,0,0,0,59.64,1951.43Z" style="fill:#77ccf2"/><circle cx="56.53" cy="2003.32" r="6.35" style="fill:#fff;opacity:0.800000011920929;isolation:isolate"/><path d="M61.11,2005.32l-3.46-2,3.46-2a.56.56,0,0,0,.2-.76h0a.56.56,0,0,0-.76-.2l-3.46,2v-4a.56.56,0,0,0-1.12,0h0v4l-3.46-2a.57.57,0,1,0-.56,1l3.46,2-3.46,2a.57.57,0,1,0,.56,1l3.46-2v4a.56.56,0,0,0,1.12,0v-4l3.46,2a.56.56,0,0,0,.76-.2h0a.56.56,0,0,0-.11-.78Z" style="fill:#77ccf2"/><circle cx="42.38" cy="2003.32" r="6.35" style="fill:#fff;opacity:0.800000011920929;isolation:isolate"/><path d="M47,2005.32l-3.46-2,3.46-2a.56.56,0,0,0,.2-.76h0a.56.56,0,0,0-.76-.2l-3.46,2v-4a.56.56,0,0,0-1.12,0h0v4l-3.46-2a.57.57,0,1,0-.56,1l3.46,2-3.46,2a.57.57,0,1,0,.56,1l3.46-2v4a.56.56,0,0,0,1.12,0v-4l3.46,2a.56.56,0,0,0,.76-.2h0a.56.56,0,0,0-.11-.78Z" style="fill:#77ccf2"/><circle cx="28.18" cy="2003.32" r="6.35" style="fill:#fff;opacity:0.800000011920929;isolation:isolate"/><path d="M32.76,2005.32l-3.46-2,3.46-2a.56.56,0,0,0,.2-.76h0a.56.56,0,0,0-.76-.2l-3.46,2v-4a.56.56,0,1,0-1.12,0v4l-3.46-2a.57.57,0,1,0-.56,1l3.46,2-3.46,2a.57.57,0,1,0,.56,1l3.46-2v4a.56.56,0,1,0,1.12,0v-4l3.46,2a.56.56,0,0,0,.76-.2h0a.56.56,0,0,0-.11-.78Z" style="fill:#77ccf2"/><rect y="1578.39" width="70" height="56" style="fill:#fff;fill-opacity:0"/><g style="opacity:0.30000001192092896"><path d="M55.16,1599.26a11.31,11.31,0,0,0-20.7,3.76,6.6,6.6,0,0,1,5.08,3.22l-.87.49c-1.49-2.62-4.45-2.94-6.48-2.81a6.52,6.52,0,0,0,2.33,12.61H54.16a8.67,8.67,0,0,0,.94-17.28Z" style="fill:#231f20"/><path d="M27.79,1594.68a7.14,7.14,0,0,0-7.14-5.86,7.32,7.32,0,0,0-5.74,2.73c1.49.25,3.47.93,4.31,2.78l-.91.41c-1-2.3-4.59-2.34-5.13-2.34a5.3,5.3,0,0,0-3.6,4.94,5.42,5.42,0,0,0,5.54,5.3H27.69a4,4,0,1,0,.1-8Z" style="fill:#231f20"/></g><path d="M53.16,1597.26a11.31,11.31,0,0,0-20.7,3.76,6.6,6.6,0,0,1,5.08,3.22l-.87.49c-1.49-2.62-4.45-2.94-6.48-2.81a6.52,6.52,0,0,0,2.33,12.61H52.16a8.67,8.67,0,0,0,.94-17.28Z" style="fill:#d8d9d8"/><path d="M25.79,1592.68a7.14,7.14,0,0,0-7.14-5.86,7.32,7.32,0,0,0-5.74,2.73c1.49.25,3.47.93,4.31,2.78l-.91.41c-1-2.3-4.59-2.34-5.13-2.34a5.3,5.3,0,0,0-3.6,4.94,5.42,5.42,0,0,0,5.54,5.3H25.69a4,4,0,1,0,.1-8Z" style="fill:#d8d9d8"/><circle cx="33.44" cy="1615.87" r="7.5" style="fill:#fff;opacity:0.800000011920929;isolation:isolate"/><path d="M38.85,1618.23l-4.09-2.36,4.09-2.36a.66.66,0,0,0,.24-.9h0a.66.66,0,0,0-.9-.24l-4.09,2.36V1610a.66.66,0,0,0-1.32,0v4.72l-4.09-2.36a.66.66,0,1,0-.73,1.1h0l4.09,2.36L28,1618.23a.66.66,0,0,0,.55,1.2h.07l4.09-2.36v4.72a.66.66,0,1,0,1.32,0h0V1617l4.09,2.36a.66.66,0,0,0,.9-.24h0A.66.66,0,0,0,38.85,1618.23Z" style="fill:#77ccf2"/><path d="M27.79,2033.54a7.14,7.14,0,0,0-7.14-5.86,7.32,7.32,0,0,0-5.74,2.73c1.49.25,3.47.93,4.31,2.78l-.91.41c-1-2.3-4.59-2.34-5.13-2.34a5.3,5.3,0,0,0-3.6,4.94,5.42,5.42,0,0,0,5.54,5.3H27.69a4,4,0,1,0,.1-8Z" style="fill:#919191"/><path d="M55.16,2099.21a11.31,11.31,0,0,0-20.7,3.76,6.6,6.6,0,0,1,5.08,3.22l-.87.49c-1.49-2.62-4.45-2.94-6.48-2.81a6.52,6.52,0,0,0,2.33,12.61H54.16a8.67,8.67,0,0,0,.94-17.28Z" style="fill:#919191"/><path d="M27.79,2094.63a7.14,7.14,0,0,0-7.14-5.86,7.32,7.32,0,0,0-5.74,2.73c1.49.25,3.47.93,4.31,2.78l-.91.41c-1-2.3-4.59-2.34-5.13-2.34a5.3,5.3,0,0,0-3.6,4.94,5.42,5.42,0,0,0,5.54,5.3H27.69a4,4,0,1,0,.1-8h0Z" style="fill:#919191"/><path d="M53.16,2148.21a11.31,11.31,0,0,0-20.7,3.76,6.6,6.6,0,0,1,5.08,3.22l-.87.49c-1.49-2.62-4.45-2.94-6.48-2.81a6.52,6.52,0,0,0,2.33,12.61H52.16a8.67,8.67,0,0,0,.94-17.28Z" style="fill:#919191"/><path d="M25.79,2143.63a7.14,7.14,0,0,0-7.14-5.86,7.32,7.32,0,0,0-5.74,2.73c1.49.25,3.47.93,4.31,2.78l-.91.41c-1-2.3-4.59-2.34-5.13-2.34a5.3,5.3,0,0,0-3.6,4.94,5.42,5.42,0,0,0,5.54,5.3H25.69a4,4,0,1,0,.1-8Z" style="fill:#919191"/><rect y="2244.41" width="70" height="56" style="fill:#fff;fill-opacity:0"/><circle cx="41.41" cy="2264.72" r="17.5" style="fill:#43444d;opacity:0.25;isolation:isolate"/><path d="M49.29,2267a.68.68,0,0,0,.68-.68h0V2264a.68.68,0,0,0-1.36,0v2.32A.68.68,0,0,0,49.29,2267Z" style="fill:#fff"/><path d="M51.14,2265.16a.68.68,0,0,0-.68-.68H48.13a.68.68,0,0,0,0,1.36h2.32a.68.68,0,0,0,.69-.67h0Z" style="fill:#fff"/><path d="M27.32,2255.57a.68.68,0,0,0,.68-.68h0v-2.32a.68.68,0,0,0-1.36,0v2.32a.68.68,0,0,0,.67.69h0Z" style="fill:#fff"/><path d="M29.17,2253.72a.68.68,0,0,0-.68-.68H26.16a.68.68,0,1,0,0,1.36h2.32a.68.68,0,0,0,.69-.67h0Z" style="fill:#fff"/><path d="M46.56,2253.72a.68.68,0,0,0,.68-.68h0v-2.32a.68.68,0,0,0-1.36,0V2253a.68.68,0,0,0,.64.72h0Z" style="fill:#fff"/><path d="M48.41,2251.88a.68.68,0,0,0-.68-.68H45.4a.68.68,0,0,0,0,1.36h2.32a.68.68,0,0,0,.69-.67h0Z" style="fill:#fff"/><path d="M41.86,2251.87a11.88,11.88,0,0,1,4.15-.22,11.9,11.9,0,0,0,5.12,21.76,11.91,11.91,0,1,1-9.27-21.54Z" style="fill:#626472;opacity:0.18000000715255737;isolation:isolate"/><path d="M38.27,2253.45a11.77,11.77,0,0,1,4.11-.22,11.78,11.78,0,0,0,5.07,21.56,11.8,11.8,0,1,1-9.18-21.34Z" style="fill:#fdfce9"/><rect y="2188.37" width="70" height="56" style="fill:#fff;fill-opacity:0"/><circle cx="40.65" cy="2204.43" r="13.6" style="fill:#efeb60;opacity:0.5099999904632568;isolation:isolate"/><circle cx="40.65" cy="2204.43" r="10.38" style="fill:#f6b31a;stroke:#feea02;stroke-miterlimit:10"/><path d="M55.16,2209.24a11.31,11.31,0,0,0-20.7,3.76,6.6,6.6,0,0,1,5.08,3.22l-.87.49c-1.49-2.62-4.45-2.94-6.48-2.81a6.52,6.52,0,0,0,2.33,12.61H54.16a8.67,8.67,0,0,0,.94-17.28Z" style="fill:#919191"/><path d="M27.79,2204.67a7.14,7.14,0,0,0-7.14-5.86,7.32,7.32,0,0,0-5.74,2.73c1.49.25,3.47.93,4.31,2.78l-.91.41c-1-2.3-4.59-2.34-5.13-2.34a5.3,5.3,0,0,0-3.6,4.94,5.42,5.42,0,0,0,5.54,5.3H27.69a4,4,0,1,0,.1-8Z" style="fill:#919191"/><polygon points="40.55 2221.73 45.54 2221.73 44.06 2225.85 46.61 2225.85 39.71 2239.05 41.3 2229.36 39.09 2229.36 40.55 2221.73" style="fill:#feda00"/><polygon points="39.55 2220.73 44.54 2220.73 43.05 2224.85 45.61 2224.85 38.71 2238.05 40.29 2228.36 38.09 2228.36 39.55 2220.73" style="fill:#f47920"/><path d="M55.16,2268.28a11.31,11.31,0,0,0-20.7,3.76,6.6,6.6,0,0,1,5.08,3.22l-.87.49c-1.49-2.62-4.45-2.94-6.48-2.81a6.52,6.52,0,0,0,2.33,12.61H54.16a8.67,8.67,0,0,0,.94-17.28Z" style="fill:#919191"/><path d="M27.79,2263.7a7.14,7.14,0,0,0-7.14-5.86,7.32,7.32,0,0,0-5.74,2.73c1.49.25,3.47.93,4.31,2.78l-.91.41c-1-2.3-4.59-2.34-5.13-2.34a5.3,5.3,0,0,0-3.6,4.94,5.42,5.42,0,0,0,5.54,5.3H27.69a4,4,0,0,0,.1-8h0Z" style="fill:#919191"/><polygon points="40.55 2280.77 45.54 2280.77 44.06 2284.89 46.61 2284.89 39.71 2298.09 41.3 2288.4 39.09 2288.4 40.55 2280.77" style="fill:#feda00"/><polygon points="39.55 2279.77 44.54 2279.77 43.05 2283.89 45.61 2283.89 38.71 2297.09 40.29 2287.4 38.09 2287.4 39.55 2279.77" style="fill:#f47920"/><path d="M55.16,2316.51a11.31,11.31,0,0,0-20.7,3.76,6.6,6.6,0,0,1,5.08,3.22l-.87.49c-1.49-2.62-4.45-2.94-6.48-2.81a6.52,6.52,0,0,0,2.33,12.61H54.16a8.67,8.67,0,0,0,.94-17.28Z" style="fill:#919191"/><path d="M27.79,2311.93a7.14,7.14,0,0,0-7.14-5.86,7.32,7.32,0,0,0-5.74,2.73c1.49.25,3.47.93,4.31,2.78l-.91.41c-1-2.3-4.59-2.34-5.13-2.34a5.3,5.3,0,0,0-3.6,4.94,5.42,5.42,0,0,0,5.54,5.3H27.69a4,4,0,0,0,.1-8h0Z" style="fill:#919191"/><polygon points="40.55 2328.99 45.54 2328.99 44.06 2333.11 46.61 2333.11 39.71 2346.32 41.3 2336.63 39.09 2336.63 40.55 2328.99" style="fill:#feda00"/><polygon points="39.55 2327.99 44.54 2327.99 43.05 2332.11 45.61 2332.11 38.71 2345.32 40.29 2335.63 38.09 2335.63 39.55 2327.99" style="fill:#f47920"/><rect y="2417.72" width="70" height="56" style="fill:#fff;fill-opacity:0"/><circle cx="41.41" cy="2438.02" r="17.5" style="fill:#43444d;opacity:0.25;isolation:isolate"/><path d="M49.29,2440.31a.68.68,0,0,0,.68-.68h0v-2.32a.68.68,0,0,0-1.36,0v2.32a.68.68,0,0,0,.67.69h0Z" style="fill:#fff"/><path d="M51.14,2438.47a.68.68,0,0,0-.68-.68H48.13a.68.68,0,1,0,0,1.36h2.32a.68.68,0,0,0,.69-.67h0Z" style="fill:#fff"/><path d="M27.32,2428.88a.68.68,0,0,0,.68-.68h0v-2.32a.68.68,0,0,0-1.36,0v2.32a.68.68,0,0,0,.67.69h0Z" style="fill:#fff"/><path d="M29.17,2427a.68.68,0,0,0-.68-.68H26.16a.68.68,0,0,0,0,1.36h2.32a.68.68,0,0,0,.69-.67h0Z" style="fill:#fff"/><path d="M46.56,2427a.68.68,0,0,0,.68-.68h0V2424a.68.68,0,0,0-1.36,0v2.32A.68.68,0,0,0,46.56,2427Z" style="fill:#fff"/><path d="M48.41,2425.19a.68.68,0,0,0-.68-.68H45.4a.68.68,0,1,0,0,1.36h2.32a.68.68,0,0,0,.69-.67h0Z" style="fill:#fff"/><path d="M41.37,2426.18a11.88,11.88,0,0,1,4.15-.22,11.9,11.9,0,0,0,5.12,21.76,11.91,11.91,0,1,1-9.27-21.54Z" style="fill:#626472;opacity:0.18000000715255737;isolation:isolate"/><path d="M38.27,2426.76a11.77,11.77,0,0,1,4.11-.22,11.78,11.78,0,0,0,5.07,21.56,11.8,11.8,0,1,1-9.18-21.34Z" style="fill:#fdfce9"/><rect y="2359.68" width="70" height="56" style="fill:#fff;fill-opacity:0"/><circle cx="37.98" cy="2375.41" r="14.58" style="fill:#efeb60;opacity:0.5099999904632568;isolation:isolate"/><circle cx="37.98" cy="2375.41" r="11.13" style="fill:#f6b31a;stroke:#feea02;stroke-miterlimit:10"/><path d="M55.16,2377.55a11.31,11.31,0,0,0-20.7,3.76,6.6,6.6,0,0,1,5.08,3.22l-.87.49c-1.49-2.62-4.45-2.94-6.48-2.81a6.52,6.52,0,0,0,2.33,12.61H54.16a8.67,8.67,0,0,0,.94-17.28Z" style="fill:#919191"/><path d="M27.79,2373a7.14,7.14,0,0,0-7.14-5.86,7.32,7.32,0,0,0-5.74,2.73c1.49.25,3.47.93,4.31,2.78l-.91.41c-1-2.3-4.59-2.34-5.13-2.34a5.3,5.3,0,0,0-3.6,4.94,5.42,5.42,0,0,0,5.54,5.3H27.69a4,4,0,0,0,.1-8h0Z" style="fill:#919191"/><polygon points="40.55 2390.03 45.54 2390.03 44.06 2394.16 46.61 2394.16 39.71 2407.36 41.3 2397.67 39.09 2397.67 40.55 2390.03" style="fill:#feda00"/><polygon points="39.55 2389.03 44.54 2389.03 43.05 2393.16 45.61 2393.16 38.71 2406.36 40.29 2396.66 38.09 2396.66 39.55 2389.03" style="fill:#f47920"/><polygon points="51.55 2390.03 56.55 2390.03 55.06 2394.16 57.61 2394.16 50.72 2407.36 52.3 2397.67 50.09 2397.67 51.55 2390.03" style="fill:#feda00"/><polygon points="50.55 2389.03 55.55 2389.03 54.06 2393.16 56.61 2393.16 49.71 2406.36 51.3 2396.66 49.09 2396.66 50.55 2389.03" style="fill:#f47920"/><path d="M55.16,2441.59a11.31,11.31,0,0,0-20.7,3.76,6.6,6.6,0,0,1,5.08,3.22l-.87.49c-1.49-2.62-4.45-2.94-6.48-2.81a6.52,6.52,0,0,0,2.33,12.61H54.16a8.67,8.67,0,0,0,.94-17.28Z" style="fill:#919191"/><path d="M27.79,2437a7.14,7.14,0,0,0-7.14-5.86,7.32,7.32,0,0,0-5.74,2.73c1.49.25,3.47.93,4.31,2.78l-.91.41c-1-2.3-4.59-2.34-5.13-2.34a5.3,5.3,0,0,0-3.6,4.94,5.42,5.42,0,0,0,5.54,5.3H27.69a4,4,0,1,0,.1-8h0Z" style="fill:#919191"/><polygon points="40.55 2454.07 45.54 2454.07 44.06 2458.2 46.61 2458.2 39.71 2471.4 41.3 2461.71 39.09 2461.71 40.55 2454.07" style="fill:#feda00"/><polygon points="39.55 2453.07 44.54 2453.07 43.05 2457.2 45.61 2457.2 38.71 2470.4 40.29 2460.7 38.09 2460.7 39.55 2453.07" style="fill:#f47920"/><polygon points="51.55 2454.07 56.55 2454.07 55.06 2458.2 57.61 2458.2 50.72 2471.4 52.3 2461.71 50.09 2461.71 51.55 2454.07" style="fill:#feda00"/><polygon points="50.55 2453.07 55.55 2453.07 54.06 2457.2 56.61 2457.2 49.71 2470.4 51.3 2460.7 49.09 2460.7 50.55 2453.07" style="fill:#f47920"/><rect y="2475.75" width="70" height="56" style="fill:#fff;fill-opacity:0"/><path d="M55.16,2493.62a11.31,11.31,0,0,0-20.7,3.76,6.6,6.6,0,0,1,5.08,3.22l-.87.49c-1.49-2.62-4.45-2.94-6.48-2.81a6.52,6.52,0,0,0,2.33,12.61H54.16a8.67,8.67,0,0,0,.94-17.28Z" style="fill:#919191"/><path d="M27.79,2489a7.14,7.14,0,0,0-7.14-5.86,7.32,7.32,0,0,0-5.74,2.73c1.49.25,3.47.93,4.31,2.78l-.91.41c-1-2.3-4.59-2.34-5.13-2.34a5.3,5.3,0,0,0-3.6,4.94,5.42,5.42,0,0,0,5.54,5.3H27.69a4,4,0,1,0,.1-8h0Z" style="fill:#919191"/><polygon points="40.55 2506.1 45.54 2506.1 44.06 2510.22 46.61 2510.22 39.71 2523.43 41.3 2513.74 39.09 2513.74 40.55 2506.1" style="fill:#feda00"/><polygon points="39.55 2505.1 44.54 2505.1 43.05 2509.22 45.61 2509.22 38.71 2522.43 40.29 2512.73 38.09 2512.73 39.55 2505.1" style="fill:#f47920"/><polygon points="51.55 2506.1 56.55 2506.1 55.06 2510.22 57.61 2510.22 50.72 2523.43 52.3 2513.74 50.09 2513.74 51.55 2506.1" style="fill:#feda00"/><polygon points="50.55 2505.1 55.55 2505.1 54.06 2509.22 56.61 2509.22 49.71 2522.43 51.3 2512.73 49.09 2512.73 50.55 2505.1" style="fill:#f47920"/><path d="M38.24,1166.11h0a.74.74,0,0,1,.49.92l-1.24,4a.74.74,0,0,1-.92.49h0a.74.74,0,0,1-.49-.92l1.24-4A.74.74,0,0,1,38.24,1166.11Z" style="fill:#77ccf2"/><path d="M46.54,1166.11h0a.74.74,0,0,1,.49.92l-1.24,4a.74.74,0,0,1-.92.49h0a.74.74,0,0,1-.49-.92l1.24-4A.74.74,0,0,1,46.54,1166.11Z" style="fill:#77ccf2"/><path d="M30.16,1166.11h0a.74.74,0,0,1,.5.92h0l-1.22,4.05a.74.74,0,0,1-.92.5h0a.74.74,0,0,1-.5-.92h0l1.22-4.05a.74.74,0,0,1,.92-.5Z" style="fill:#77ccf2"/><path d="M54.49,1166.11h0a.74.74,0,0,1,.49.92l-1.24,4a.74.74,0,0,1-.92.49h0a.74.74,0,0,1-.49-.92l1.24-4A.74.74,0,0,1,54.49,1166.11Z" style="fill:#77ccf2"/><path d="M42.24,1166.11h0a.74.74,0,0,1,.49.92l-1.24,4a.74.74,0,0,1-.92.49h0a.74.74,0,0,1-.49-.92l1.24-4A.74.74,0,0,1,42.24,1166.11Z" style="fill:#fff"/><path d="M50.55,1166.11h0a.74.74,0,0,1,.49.92l-1.24,4a.74.74,0,0,1-.92.49h0a.74.74,0,0,1-.49-.92l1.24-4A.74.74,0,0,1,50.55,1166.11Z" style="fill:#fff"/><path d="M34.36,1166.11h0a.74.74,0,0,1,.49.92l-1.24,4a.74.74,0,0,1-.92.49h0a.74.74,0,0,1-.49-.92l1.24-4A.74.74,0,0,1,34.36,1166.11Z" style="fill:#fff"/><path d="M58.5,1166.11h0a.74.74,0,0,1,.49.92l-1.24,4a.74.74,0,0,1-.92.49h0a.74.74,0,0,1-.49-.92l1.24-4A.74.74,0,0,1,58.5,1166.11Z" style="fill:#fff"/><path d="M36.24,1172.12h0a.74.74,0,0,1,.49.92l-1.24,4a.74.74,0,0,1-.92.49h0a.74.74,0,0,1-.49-.92l1.24-4A.74.74,0,0,1,36.24,1172.12Z" style="fill:#77ccf2"/><path d="M44.53,1172.11h0a.74.74,0,0,1,.49.92l-1.24,4a.74.74,0,0,1-.92.49h0a.74.74,0,0,1-.49-.92l1.24-4A.74.74,0,0,1,44.53,1172.11Z" style="fill:#77ccf2"/><path d="M28.35,1172.12h0a.74.74,0,0,1,.49.92l-1.24,4a.74.74,0,0,1-.92.49h0a.74.74,0,0,1-.49-.92l1.24-4A.74.74,0,0,1,28.35,1172.12Z" style="fill:#77ccf2"/><path d="M52.49,1172.12h0a.74.74,0,0,1,.49.92l-1.24,4a.74.74,0,0,1-.92.49h0a.74.74,0,0,1-.49-.92l1.24-4A.74.74,0,0,1,52.49,1172.12Z" style="fill:#77ccf2"/><path d="M40.24,1172.11h0a.74.74,0,0,1,.49.92l-1.24,4a.74.74,0,0,1-.92.49h0a.74.74,0,0,1-.49-.92l1.24-4A.74.74,0,0,1,40.24,1172.11Z" style="fill:#fff"/><path d="M48.55,1172.12h0a.74.74,0,0,1,.49.92l-1.24,4a.74.74,0,0,1-.92.49h0a.74.74,0,0,1-.49-.92l1.24-4A.74.74,0,0,1,48.55,1172.12Z" style="fill:#fff"/><path d="M32.35,1172.12h0a.74.74,0,0,1,.49.92l-1.24,4a.74.74,0,0,1-.92.49h0a.74.74,0,0,1-.49-.92l1.24-4A.74.74,0,0,1,32.35,1172.12Z" style="fill:#fff"/><path d="M56.49,1172.12h0a.74.74,0,0,1,.49.92l-1.24,4a.74.74,0,0,1-.92.49h0a.74.74,0,0,1-.49-.92l1.24-4A.74.74,0,0,1,56.49,1172.12Z" style="fill:#fff"/><path d="M38.24,1218.14h0a.74.74,0,0,1,.49.92l-1.24,4a.74.74,0,0,1-.92.49h0a.74.74,0,0,1-.49-.92l1.24-4A.74.74,0,0,1,38.24,1218.14Z" style="fill:#77ccf2"/><path d="M46.54,1218.14h0a.74.74,0,0,1,.49.92l-1.24,4a.74.74,0,0,1-.92.49h0a.74.74,0,0,1-.49-.92l1.24-4A.74.74,0,0,1,46.54,1218.14Z" style="fill:#77ccf2"/><path d="M30.16,1218.14h0a.74.74,0,0,1,.5.92h0l-1.22,4.05a.74.74,0,0,1-.92.5h0a.74.74,0,0,1-.5-.92h0l1.22-4.05a.74.74,0,0,1,.92-.5Z" style="fill:#77ccf2"/><path d="M54.49,1218.14h0a.74.74,0,0,1,.49.92l-1.24,4a.74.74,0,0,1-.92.49h0a.74.74,0,0,1-.49-.92l1.24-4A.74.74,0,0,1,54.49,1218.14Z" style="fill:#77ccf2"/><path d="M42.24,1218.14h0a.74.74,0,0,1,.49.92l-1.24,4a.74.74,0,0,1-.92.49h0a.74.74,0,0,1-.49-.92l1.24-4A.74.74,0,0,1,42.24,1218.14Z" style="fill:#fff"/><path d="M50.55,1218.14h0a.74.74,0,0,1,.49.92l-1.24,4a.74.74,0,0,1-.92.49h0a.74.74,0,0,1-.49-.92l1.24-4A.74.74,0,0,1,50.55,1218.14Z" style="fill:#fff"/><path d="M34.36,1218.14h0a.74.74,0,0,1,.49.92l-1.24,4a.74.74,0,0,1-.92.49h0a.74.74,0,0,1-.49-.92l1.24-4A.74.74,0,0,1,34.36,1218.14Z" style="fill:#fff"/><path d="M58.5,1218.14h0a.74.74,0,0,1,.49.92l-1.24,4a.74.74,0,0,1-.92.49h0a.74.74,0,0,1-.49-.92l1.24-4A.74.74,0,0,1,58.5,1218.14Z" style="fill:#fff"/><path d="M36.24,1224.16h0a.74.74,0,0,1,.49.92l-1.24,4a.74.74,0,0,1-.92.49h0a.74.74,0,0,1-.49-.92l1.24-4A.74.74,0,0,1,36.24,1224.16Z" style="fill:#77ccf2"/><path d="M44.53,1224.15h0a.74.74,0,0,1,.49.92l-1.24,4a.74.74,0,0,1-.92.49h0a.74.74,0,0,1-.49-.92l1.24-4A.74.74,0,0,1,44.53,1224.15Z" style="fill:#77ccf2"/><path d="M28.35,1224.15h0a.74.74,0,0,1,.49.92l-1.24,4a.74.74,0,0,1-.92.49h0a.74.74,0,0,1-.49-.92l1.24-4A.74.74,0,0,1,28.35,1224.15Z" style="fill:#77ccf2"/><path d="M52.49,1224.16h0a.74.74,0,0,1,.49.92l-1.24,4a.74.74,0,0,1-.92.49h0a.74.74,0,0,1-.49-.92l1.24-4A.74.74,0,0,1,52.49,1224.16Z" style="fill:#77ccf2"/><path d="M40.24,1224.15h0a.74.74,0,0,1,.49.92l-1.24,4a.74.74,0,0,1-.92.49h0a.74.74,0,0,1-.49-.92l1.24-4A.74.74,0,0,1,40.24,1224.15Z" style="fill:#fff"/><path d="M48.55,1224.15h0a.74.74,0,0,1,.49.92l-1.24,4a.74.74,0,0,1-.92.49h0a.74.74,0,0,1-.49-.92l1.24-4A.74.74,0,0,1,48.55,1224.15Z" style="fill:#fff"/><path d="M32.35,1224.16h0a.74.74,0,0,1,.49.92l-1.24,4a.74.74,0,0,1-.92.49h0a.74.74,0,0,1-.49-.92l1.24-4A.74.74,0,0,1,32.35,1224.16Z" style="fill:#fff"/><path d="M56.49,1224.15h0a.74.74,0,0,1,.49.92l-1.24,4a.74.74,0,0,1-.92.49h0a.74.74,0,0,1-.49-.92l1.24-4A.74.74,0,0,1,56.49,1224.15Z" style="fill:#fff"/><path d="M55.16,2038.12a11.31,11.31,0,0,0-20.7,3.76,6.6,6.6,0,0,1,5.08,3.22l-.87.49c-1.49-2.62-4.45-2.94-6.48-2.81a6.52,6.52,0,0,0,2.33,12.61H54.16a8.67,8.67,0,0,0,.94-17.28Z" style="fill:#919191"/><path d="M39.73,2055.77h0a.74.74,0,0,1,.49.92l-3.59,11.7a.74.74,0,0,1-.92.49h0a.74.74,0,0,1-.49-.92l3.59-11.7A.74.74,0,0,1,39.73,2055.77Z" style="fill:#77ccf2"/><path d="M49,2055.76h0a.74.74,0,0,1,.49.92l-3.59,11.7a.74.74,0,0,1-.92.49h0a.74.74,0,0,1-.49-.92l3.59-11.7A.74.74,0,0,1,49,2055.76Z" style="fill:#77ccf2"/><path d="M30.88,2055.76h0a.74.74,0,0,1,.49.92l-3.59,11.7a.74.74,0,0,1-.92.49h0a.74.74,0,0,1-.49-.92l3.59-11.7A.74.74,0,0,1,30.88,2055.76Z" style="fill:#77ccf2"/><path d="M57.94,2055.77h0a.74.74,0,0,1,.49.92l-3.59,11.7a.74.74,0,0,1-.92.49h0a.74.74,0,0,1-.49-.92l3.59-11.7A.74.74,0,0,1,57.94,2055.77Z" style="fill:#77ccf2"/><path d="M44.36,2055.77h0a.74.74,0,0,1,.49.92l-3.59,11.7a.74.74,0,0,1-.92.49h0a.74.74,0,0,1-.49-.92l3.59-11.7A.74.74,0,0,1,44.36,2055.77Z" style="fill:#fff"/><path d="M53.66,2055.77h0a.74.74,0,0,1,.49.92l-3.59,11.7a.74.74,0,0,1-.92.49h0a.74.74,0,0,1-.49-.92l3.59-11.7A.74.74,0,0,1,53.66,2055.77Z" style="fill:#fff"/><path d="M35.51,2055.77h0a.74.74,0,0,1,.49.92l-3.59,11.7a.74.74,0,0,1-.92.49h0A.74.74,0,0,1,31,2068l3.59-11.7a.74.74,0,0,1,.9-.54h0Z" style="fill:#fff"/><path d="M62.58,2055.77h0a.74.74,0,0,1,.49.92l-3.59,11.7a.74.74,0,0,1-.92.49h0a.74.74,0,0,1-.49-.92l3.59-11.7A.74.74,0,0,1,62.58,2055.77Z" style="fill:#fff"/><path d="M39.73,2116.8h0a.74.74,0,0,1,.49.92l-3.59,11.7a.74.74,0,0,1-.92.49h0a.74.74,0,0,1-.49-.92l3.59-11.7A.74.74,0,0,1,39.73,2116.8Z" style="fill:#77ccf2"/><path d="M49,2116.8h0a.74.74,0,0,1,.49.92l-3.59,11.7a.74.74,0,0,1-.92.49h0a.74.74,0,0,1-.49-.92l3.59-11.7A.74.74,0,0,1,49,2116.8Z" style="fill:#77ccf2"/><path d="M30.88,2116.8h0a.74.74,0,0,1,.49.92l-3.59,11.7a.74.74,0,0,1-.92.49h0a.74.74,0,0,1-.49-.92l3.59-11.7A.74.74,0,0,1,30.88,2116.8Z" style="fill:#77ccf2"/><path d="M57.94,2116.81h0a.74.74,0,0,1,.49.92l-3.59,11.7a.74.74,0,0,1-.92.49h0a.74.74,0,0,1-.49-.92L57,2117.3a.74.74,0,0,1,.92-.5h0Z" style="fill:#77ccf2"/><path d="M44.36,2116.81h0a.74.74,0,0,1,.49.92l-3.59,11.7a.74.74,0,0,1-.92.49h0a.74.74,0,0,1-.49-.92l3.59-11.7A.74.74,0,0,1,44.36,2116.81Z" style="fill:#fff"/><path d="M53.66,2116.81h0a.74.74,0,0,1,.49.92l-3.59,11.7a.74.74,0,0,1-.92.49h0a.74.74,0,0,1-.49-.92l3.59-11.7A.74.74,0,0,1,53.66,2116.81Z" style="fill:#fff"/><path d="M35.51,2116.8h0a.74.74,0,0,1,.49.92l-3.59,11.7a.74.74,0,0,1-.92.49h0A.74.74,0,0,1,31,2129l3.59-11.7a.74.74,0,0,1,.92-.5Z" style="fill:#fff"/><path d="M62.58,2116.81h0a.74.74,0,0,1,.49.92l-3.59,11.7a.74.74,0,0,1-.92.49h0a.74.74,0,0,1-.49-.92l3.59-11.7A.74.74,0,0,1,62.58,2116.81Z" style="fill:#fff"/><path d="M39.73,2166.84h0a.74.74,0,0,1,.49.92l-3.59,11.7a.74.74,0,0,1-.92.49h0a.74.74,0,0,1-.49-.92l3.59-11.7A.74.74,0,0,1,39.73,2166.84Z" style="fill:#77ccf2"/><path d="M49,2166.83h0a.74.74,0,0,1,.49.92l-3.59,11.7a.74.74,0,0,1-.92.49h0a.74.74,0,0,1-.49-.92l3.59-11.7A.74.74,0,0,1,49,2166.83Z" style="fill:#77ccf2"/><path d="M30.88,2166.83h0a.74.74,0,0,1,.49.92l-3.59,11.7a.74.74,0,0,1-.92.49h0a.74.74,0,0,1-.49-.92l3.59-11.7A.74.74,0,0,1,30.88,2166.83Z" style="fill:#77ccf2"/><path d="M57.94,2166.84h0a.74.74,0,0,1,.49.92l-3.59,11.7a.74.74,0,0,1-.92.49h0a.74.74,0,0,1-.49-.92l3.59-11.7A.74.74,0,0,1,57.94,2166.84Z" style="fill:#77ccf2"/><path d="M44.36,2166.84h0a.74.74,0,0,1,.49.92l-3.59,11.7a.74.74,0,0,1-.92.49h0a.74.74,0,0,1-.49-.92l3.59-11.7A.74.74,0,0,1,44.36,2166.84Z" style="fill:#fff"/><path d="M53.66,2166.84h0a.74.74,0,0,1,.49.92l-3.59,11.7a.74.74,0,0,1-.92.49h0a.74.74,0,0,1-.49-.92l3.59-11.7A.74.74,0,0,1,53.66,2166.84Z" style="fill:#fff"/><path d="M35.51,2166.84h0a.74.74,0,0,1,.49.92l-3.59,11.7a.74.74,0,0,1-.92.49h0a.74.74,0,0,1-.5-.92h0l3.59-11.7a.74.74,0,0,1,.92-.49Z" style="fill:#fff"/><path d="M62.58,2166.84h0a.74.74,0,0,1,.49.92l-3.59,11.7a.74.74,0,0,1-.92.49h0a.74.74,0,0,1-.49-.92l3.59-11.7A.74.74,0,0,1,62.58,2166.84Z" style="fill:#fff"/><rect x="49.27" y="2049.75" width="11.38" height="11.38" style="fill:#cf2d28"/><path d="M58,2058.56a7.69,7.69,0,0,1-2.29.39,3.83,3.83,0,0,1-2.79-.93,3.33,3.33,0,0,1-1-2.5c0-2.28,1.67-3.59,3.93-3.59a4.74,4.74,0,0,1,1.91.34l-.33,1.24a3.81,3.81,0,0,0-1.6-.3,2.24,2.24,0,1,0,.65,4.37v-1.44h-1v-1.21H58Z" style="fill:#fff"/><polygon points="40.55 2050.61 45.54 2050.61 44.06 2054.73 46.61 2054.73 39.71 2067.93 41.3 2058.24 39.09 2058.24 40.55 2050.61" style="fill:#feda00"/><polygon points="39.55 2049.61 44.54 2049.61 43.05 2053.73 45.61 2053.73 38.71 2066.93 40.29 2057.24 38.09 2057.24 39.55 2049.61" style="fill:#f47920"/><polygon points="40.55 2111.7 45.54 2111.7 44.06 2115.82 46.61 2115.82 39.71 2129.02 41.3 2119.33 39.09 2119.33 40.55 2111.7" style="fill:#feda00"/><polygon points="39.55 2110.7 44.54 2110.7 43.05 2114.82 45.61 2114.82 38.71 2128.02 40.29 2118.33 38.09 2118.33 39.55 2110.7" style="fill:#f47920"/><rect x="49.27" y="2110.84" width="11.38" height="11.38" style="fill:#cf2d28"/><path d="M58,2119.65a7.69,7.69,0,0,1-2.29.39,3.83,3.83,0,0,1-2.79-.93,3.33,3.33,0,0,1-1-2.5c0-2.28,1.67-3.59,3.93-3.59a4.74,4.74,0,0,1,1.91.34l-.33,1.24a3.81,3.81,0,0,0-1.6-.3,2.24,2.24,0,1,0,.65,4.37v-1.44h-1V2116H58Z" style="fill:#fff"/><polygon points="38.55 2160.69 43.54 2160.69 42.05 2164.81 44.61 2164.81 37.71 2178.01 39.29 2168.32 37.09 2168.32 38.55 2160.69" style="fill:#feda00"/><polygon points="37.55 2159.69 42.54 2159.69 41.05 2163.81 43.6 2163.81 36.71 2177.01 38.29 2167.32 36.09 2167.32 37.55 2159.69" style="fill:#f47920"/><rect x="50.27" y="2159.83" width="11.38" height="11.38" style="fill:#cf2d28"/><path d="M59,2168.64a7.69,7.69,0,0,1-2.29.39,3.83,3.83,0,0,1-2.79-.93,3.33,3.33,0,0,1-1-2.5c0-2.28,1.67-3.59,3.93-3.59a4.74,4.74,0,0,1,1.91.34l-.33,1.24a3.81,3.81,0,0,0-1.6-.3,2.24,2.24,0,1,0,.65,4.37v-1.44h-1V2165H59Z" style="fill:#fff"/><path d="M38.58,776.77h0a.74.74,0,0,1,.49.92l-1.24,4a.74.74,0,0,1-.92.49h0a.74.74,0,0,1-.49-.92l1.24-4A.74.74,0,0,1,38.58,776.77Z" style="fill:#77ccf2"/><path d="M43.89,780.55h0a.74.74,0,0,1,.49.92l-1.24,4a.74.74,0,0,1-.92.49h0a.74.74,0,0,1-.49-.92L43,781A.74.74,0,0,1,43.89,780.55Z" style="fill:#77ccf2"/><path d="M30.69,776.76h0a.74.74,0,0,1,.49.92l-1.24,4a.74.74,0,0,1-.92.49h0a.74.74,0,0,1-.49-.92l1.24-4A.74.74,0,0,1,30.69,776.76Z" style="fill:#77ccf2"/><path d="M51.85,777.67h0a.74.74,0,0,1,.49.92l-1.24,4a.74.74,0,0,1-.92.49h0a.74.74,0,0,1-.49-.92l1.24-4A.74.74,0,0,1,51.85,777.67Z" style="fill:#77ccf2"/><path d="M42.58,775.77h0a.74.74,0,0,1,.49.92l-1.24,4a.74.74,0,0,1-.92.49h0a.74.74,0,0,1-.49-.92l1.24-4A.74.74,0,0,1,42.58,775.77Z" style="fill:#fff"/><path d="M47.9,779.54h0a.74.74,0,0,1,.49.92l-1.24,4a.74.74,0,0,1-.92.49h0a.74.74,0,0,1-.49-.92L47,780A.74.74,0,0,1,47.9,779.54Z" style="fill:#fff"/><path d="M34.69,775.77h0a.74.74,0,0,1,.49.92l-1.24,4a.74.74,0,0,1-.92.49h0a.74.74,0,0,1-.49-.92l1.24-4A.74.74,0,0,1,34.69,775.77Z" style="fill:#fff"/><path d="M55.85,776.67h0a.74.74,0,0,1,.49.92l-1.24,4a.74.74,0,0,1-.92.49h0a.74.74,0,0,1-.49-.92l1.24-4A.74.74,0,0,1,55.85,776.67Z" style="fill:#fff"/><polygon points="49.38 780.84 65.89 780.84 57.63 766.92 49.38 780.84" style="fill:#fff"/><path d="M67.7,781.87H47.57l10.07-17Zm-16.51-2.06H64.08l-6.44-10.87Z" style="fill:#cf2d28"/><path d="M57.77,771.62a7.93,7.93,0,0,0-.81,2.3c0,.73,1.35,1.09,1.35,2.18s-2.55,2.12-2.55,2.12" style="fill:none;stroke:#231f20;stroke-miterlimit:10"/><path d="M57.9,771.62a4.72,4.72,0,0,0-.58,1.77c0,.73,1.8.68,2.14,2.11.25,1.06-.89,2.73-.89,2.73" style="fill:none;stroke:#231f20;stroke-miterlimit:10"/></svg>